<?xml version="1.0" encoding="utf-8"?>
<!-- Generator: Adobe Illustrator 26.3.1, SVG Export Plug-In . SVG Version: 6.00 Build 0)  -->
<svg version="1.1" id="Layer_1" xmlns="http://www.w3.org/2000/svg" xmlns:xlink="http://www.w3.org/1999/xlink" x="0px" y="0px"
	 viewBox="0 0 325 325" style="enable-background:new 0 0 325 325;" xml:space="preserve">
<style type="text/css">
	.st0{fill:#FFFFFF;stroke:#FFFFFF;stroke-miterlimit:10;}
	.st1{fill-rule:evenodd;clip-rule:evenodd;fill:#959169;}
</style>
<rect class="st0" width="325" height="325"/>
<path class="st1" d="M89.5,177.8c4.5-4.3,16.3-5.3,17.4-14c-2,3.2-8.3,5.1-12.4,6.8c1-0.9,2.8-2.1,5-5.3c1.9-3.3,0.8-5.5,0.4-6.2
	l-0.1,0.2c-0.1,1.5-1.6,3.4-3.3,5.1c-0.8,0.8-1.7,1.5-2.5,2.2c3.2-7.2,5-15.2,5-23.6c0-1,0-2-0.1-2.9c-12.1-0.1-22.2-2.9-27.9-7.6
	c-5.7,4.7-15.8,7.5-27.9,7.6c0,1-0.1,2-0.1,2.9c0,8.4,1.8,16.3,4.9,23.5c0,0.1,0,0.2,0.1,0.3c-0.9-0.8-1.8-1.6-2.8-2.4
	c-1.8-1.7-3.3-3.6-3.3-5.1l-0.1-0.2c-0.4,0.7-1.5,2.9,0.4,6.2c2.1,3.2,3.9,4.4,5,5.3c-4.1-1.7-10.4-3.7-12.4-6.8
	c1,8.6,12.8,9.7,17.4,14c0.9,0.8,2.4,3.9,0,7.2c-2.1,2.8-4.9,1.8-5.7,1.2c-0.8-0.6-2.7-2.6-0.5-4.6c0.8-0.7,0.8,1.5,2.4-0.1
	c0.6-0.6,0.4-1.7-0.4-2.3c0,0-1.8-1.7-3.5,0.7c-1.9,2.7-0.4,5.6,1.7,7c2.6,1.7,4.9,0.6,6.6-1.4c0.9-1,1.6-2.9,1.8-5
	c0.2,0.1,0.4,0.3,0.6,0.5c0.1,0.1,0.3,0.2,0.4,0.3c0.6,0.6,1.1,1.5,0.9,2.6c0,0.2-0.1,0.4-0.1,0.5c1.4-0.5,1.7-1.7,1.7-2.6
	c3.8,4.2,8.2,7.8,13.1,10.6c4.8-2.8,9.1-6.3,12.9-10.4c0,0.8,0.4,1.9,1.7,2.3c-0.1-0.2-0.1-0.3-0.1-0.5c-0.2-1.1,0.3-2,0.9-2.6
	c0.1-0.1,0.2-0.2,0.4-0.3c0.2-0.2,0.5-0.3,0.6-0.5c0.1,2.1,0.9,3.9,1.8,5c1.7,2,3.9,3.1,6.6,1.4c2.1-1.4,3.6-4.3,1.7-7
	c-1.6-2.4-3.5-0.7-3.5-0.7c-0.8,0.6-1,1.7-0.4,2.3c1.6,1.6,1.7-0.5,2.4,0.1c2.3,2,0.3,4-0.5,4.6c-0.8,0.6-3.6,1.7-5.7-1.2
	C87.1,181.6,88.6,178.6,89.5,177.8L89.5,177.8z M70.8,134.1c-5.4,4.5-15,7.1-26.4,7.2c0,0.9-0.1,1.8-0.1,2.8
	c0,20,10.7,37.5,26.5,46.8c15.8-9.3,26.5-26.7,26.5-46.8c0-0.9,0-1.9-0.1-2.8C85.8,141.2,76.2,138.6,70.8,134.1L70.8,134.1z
	 M70.8,135c5.5,4.3,14.8,6.8,25.8,7c0,0.7,0,1.4,0,2.1c0,18.9-9.9,36.5-25.8,46C54.9,180.6,45,163,45,144.1c0-0.6,0-1.3,0-2.1
	C56,141.8,65.3,139.3,70.8,135z M66.7,149c-0.3,0.5-0.6,1-0.8,1.6c1.7,1.3,4.4,2.1,7.1,1.8c9-1,11.1-9.2,4.6-10.2
	C73.9,141.6,69.2,144.6,66.7,149L66.7,149z M69.3,168.1c-4.7,0.8-10.6,5.1-6.7,6c2.4,0.6,8.4-1.6,11.6-6.4
	C72.6,167.7,70.8,167.8,69.3,168.1L69.3,168.1z M81.6,168.1c-1.2-0.3-3.9-0.5-6-0.5c-3.4,5.3-10.6,8.3-13.6,7.2
	c-5-1.9,0.4-6.5,7-7.5c1.4-0.2,4-0.4,5.6-0.5c1.3-2.4,2.1-4.3,2.7-7l0.1-0.5c-1.6,1.6-6.6,5.6-11,4c-3.3-1.2-5.4-6.7-2.6-13.2
	c-2-2.3-2.6-5.6-0.1-8.2c0.4-0.4,0.8-0.4,0.3,0.2c-1.8,2.4-1.4,5.1,0.2,7.2c0.2-0.4,0.4-0.7,0.6-1.1c2.8-4.9,8.2-7.7,12.5-7
	c8.2,1.4,6.4,11.8-4.8,12c-2.6,0.1-5.3-0.7-7-2c-2.3,5.4-1.3,10.1,1.8,11.2c3.5,1.2,8.4-1.8,9.1-3.7c1.5-3.9,3.4-2.7,3.2-1.3
	c-0.4,3.2-1.7,6-3.6,9.4c2.4,0,4.2,0.3,5.8,0.7C82.6,167.8,82.6,168.4,81.6,168.1z M66.1,176.3l-2.6,5.1c-0.1,0.1-0.3,0.1-0.5,0.1
	c0,0-0.1,0-0.1,0l0-0.1c0.8-1.5,1.6-3,2.4-4.5c-0.4,0.4-0.9,0.8-1.4,1.2h0l0-0.1l0-0.1c0.6-0.5,1.1-0.9,1.6-1.4
	c0.1-0.1,0.2-0.3,0.4-0.3l0.3,0c0,0,0,0,0.1,0L66.1,176.3C66.2,176.3,66.1,176.3,66.1,176.3z M69.9,176.3c-0.5,0-0.9,0.5-0.9,1
	c0,0.4,0.2,1,0.3,1.3c0.5-0.4,1.1-1.1,1.1-1.8C70.3,176.5,70.2,176.3,69.9,176.3z M68.6,178.6c-0.6,0.5-1.4,1.3-1.4,2.2
	c0,0.4,0.2,0.7,0.6,0.7c0.7,0,1.2-0.7,1.2-1.4C68.9,179.6,68.7,179,68.6,178.6z M69.3,178.9c0.2,0.4,0.2,0.6,0.2,1
	c0,0.9-0.9,1.7-1.8,1.7c-0.5,0-1-0.3-1-0.9c0-0.9,1.2-1.8,1.8-2.3c-0.1-0.2-0.1-0.5-0.2-0.7c0-0.8,0.7-1.5,1.5-1.5
	c0.4,0,0.8,0.2,0.8,0.7C70.7,177.6,69.8,178.4,69.3,178.9z M74.9,176.2c-0.2,0.2-0.4,0.4-0.6,0.5c-0.4,0.4-0.8,0.8-1.1,1.3
	c-0.5,0.7-1.2,1.9-1.2,2.8c0,0.3,0.2,0.6,0.5,0.6c0.8,0,1.6-1.6,1.6-2.4c0-0.2-0.1-0.4-0.3-0.4c-0.6,0-1.1,1-1.3,1.5l0,0l-0.1,0
	l0-0.1c0.2-0.7,0.8-1.8,1.6-1.8c0.4,0,0.6,0.3,0.6,0.7c0,1.1-1.2,2.5-2.2,2.5c-0.6,0-0.9-0.4-0.9-1c0-1.7,2.1-3.7,3.4-4.6l0.1,0
	L74.9,176.2C74.9,176.1,74.9,176.2,74.9,176.2z M78,178.5c0.5,0,1.2,0.2,1.2,0.9c0,1.1-1.6,2.3-2.6,2.3c-0.3,0-0.6,0-0.8-0.2v0
	l0.1-0.1l0,0c0.2,0.1,0.4,0.1,0.6,0.1c0.9,0,2.1-1.2,2.1-2.2c0-0.4-0.3-0.6-0.6-0.6c-0.2,0-0.4,0.1-0.6,0.1l-0.1,0l0-0.1l0,0
	c0.6-0.3,2-1,2-1.9c0-0.2-0.1-0.3-0.3-0.3c-0.5,0-0.9,0.5-1.2,0.8h0l-0.1-0.1v0c0.4-0.5,0.9-1,1.6-1c0.3,0,0.7,0.2,0.7,0.6
	C80,177.6,78.7,178.2,78,178.5z M135.5,156.9c-0.5,0.2-0.9,0.5-1.4,0.6c-0.4,0.2-0.9,0.3-1.3,0.4c-0.4,0.1-0.9,0.2-1.4,0.2
	c-0.5,0-1.1,0.1-1.7,0.1c-1,0-2-0.2-3-0.5c-0.9-0.3-1.8-0.9-2.5-1.6c-0.7-0.7-1.3-1.6-1.7-2.7c-0.4-1.1-0.6-2.4-0.6-3.9
	c0-1.3,0.2-2.6,0.6-3.7c0.4-1.1,1-2.1,1.8-2.8c0.8-0.8,1.7-1.4,2.7-1.8c1.1-0.4,2.2-0.6,3.5-0.6c0.6,0,1.2,0.1,1.8,0.2
	c0.6,0.1,1.2,0.4,1.7,0.7c0.5,0.3,0.9,0.7,1.3,1.2c0.3,0.5,0.5,1,0.5,1.7c0,0.4-0.1,0.7-0.2,1.1c-0.1,0.3-0.3,0.6-0.5,0.9
	c-0.2,0.3-0.5,0.5-0.7,0.6c-0.3,0.2-0.6,0.2-1,0.2c-0.3,0-0.6-0.1-1-0.3c-0.3-0.2-0.5-0.4-0.5-0.7c0,0,0.1-0.1,0.2-0.2
	c0.2-0.1,0.3-0.2,0.4-0.4c0.1-0.2,0.3-0.4,0.4-0.6c0.1-0.2,0.2-0.6,0.2-0.9c0-0.8-0.3-1.4-0.8-1.8c-0.5-0.4-1.2-0.7-2.1-0.7
	c-0.8,0-1.5,0.2-2.1,0.5c-0.7,0.3-1.2,0.8-1.7,1.5c-0.5,0.7-0.9,1.5-1.2,2.4c-0.3,1-0.4,2.1-0.4,3.3c0,1.2,0.1,2.3,0.4,3.2
	c0.3,0.9,0.7,1.7,1.2,2.4c0.5,0.6,1.1,1.2,1.8,1.5c0.7,0.3,1.5,0.5,2.3,0.5c0.5,0,1,0,1.4-0.1c0.4-0.1,0.8-0.2,1.3-0.3v-2.7
	c0-0.4,0-0.7,0-0.9c0-0.3-0.1-0.5-0.2-0.6c-0.1-0.2-0.3-0.3-0.4-0.4c-0.2-0.1-0.5-0.1-0.8-0.1c-0.2,0-0.3,0-0.5-0.1
	s-0.2-0.2-0.2-0.5c0-0.1,0-0.3,0.1-0.4c0.1-0.1,0.2-0.2,0.4-0.2c0.3,0,0.5,0,0.7,0l0.6,0c0.2,0,0.4,0,0.6,0h1.5c0.2,0,0.4,0,0.6,0
	c0.2,0,0.4,0,0.6,0s0.4,0,0.7,0c0.2,0,0.3,0.1,0.4,0.2c0.1,0.1,0.1,0.3,0.1,0.4c0,0.3-0.1,0.5-0.2,0.5c-0.1,0-0.3,0.1-0.5,0.1
	c-0.3,0-0.6,0-0.8,0.1c-0.2,0.1-0.3,0.2-0.4,0.4c-0.1,0.2-0.1,0.4-0.1,0.6c0,0.3,0,0.6,0,0.9L135.5,156.9L135.5,156.9z M145.4,151.2
	h5.2l-2.5-6.8h-0.1L145.4,151.2z M146.4,140.7c0.5,0,1,0,1.4,0.1c0.4,0.1,0.7,0.2,1,0.4c0.3,0.2,0.6,0.5,0.8,0.8
	c0.2,0.4,0.5,0.8,0.7,1.4l4.2,11c0.1,0.2,0.2,0.5,0.3,0.7c0.1,0.2,0.2,0.5,0.3,0.6c0.1,0.2,0.3,0.4,0.5,0.5c0.2,0.1,0.4,0.2,0.7,0.2
	c0.2,0,0.3,0,0.4,0.1c0.1,0,0.2,0.2,0.2,0.5c0,0.1,0,0.3-0.1,0.4c-0.1,0.1-0.2,0.2-0.3,0.2c-0.5,0-1-0.1-1.4-0.1
	c-1.5,0-2.9,0-4.4,0.1c-0.2,0-0.3-0.1-0.3-0.2c-0.1-0.1-0.1-0.3-0.1-0.4c0-0.3,0.1-0.5,0.2-0.5c0.1,0,0.3-0.1,0.4-0.1
	c0.4,0,0.7,0,0.9-0.1c0.2-0.1,0.4-0.2,0.4-0.4c0.1-0.2,0.1-0.4,0-0.6c-0.1-0.3-0.1-0.6-0.3-0.9l-0.8-2.2H145
	c-0.4,1.1-0.7,1.8-0.8,2.2c-0.1,0.5-0.2,0.8-0.3,1.1c0,0.3,0,0.5,0.1,0.6c0.1,0.1,0.3,0.2,0.6,0.3c0.3,0,0.7,0.1,1.1,0.1
	c0.2,0,0.3,0,0.4,0.1c0.1,0,0.2,0.2,0.2,0.5c0,0.1,0,0.3-0.1,0.4c-0.1,0.1-0.2,0.2-0.3,0.2c-0.5,0-0.9-0.1-1.4-0.1
	c-0.4,0-0.8,0-1.3,0h-0.6c-0.2,0-0.4,0-0.5,0l-0.5,0c-0.2,0-0.4,0-0.7,0c-0.2,0-0.3-0.1-0.3-0.2c-0.1-0.1-0.1-0.3-0.1-0.4
	c0-0.3,0.1-0.5,0.2-0.5c0.1,0,0.3-0.1,0.4-0.1c0.3,0,0.6-0.1,0.8-0.2c0.2-0.1,0.4-0.3,0.5-0.5c0.1-0.2,0.3-0.4,0.4-0.7l0.3-0.7
	l4.3-11c0.1-0.3,0.2-0.6,0.1-0.8c0-0.2-0.1-0.3-0.2-0.5c-0.1-0.1-0.3-0.2-0.5-0.3c-0.2-0.1-0.4-0.1-0.6-0.1
	c-0.2-0.1-0.4-0.1-0.5-0.1c-0.1,0-0.1-0.2-0.1-0.5c0-0.3,0.1-0.5,0.3-0.5C145.9,140.8,146.1,140.7,146.4,140.7L146.4,140.7z
	 M166.8,156.6c0.5,0,1.1-0.1,1.6-0.2c0.5-0.1,0.9-0.4,1.3-0.7s0.7-0.7,0.9-1.2c0.2-0.5,0.3-1.2,0.3-1.9c0-0.4-0.1-0.8-0.3-1.2
	c-0.2-0.4-0.5-0.8-0.8-1c-0.4-0.3-0.9-0.6-1.5-0.7c-0.6-0.2-1.3-0.3-2.2-0.3h-1v5.3c0,0.4,0,0.8,0.1,1.1c0.1,0.3,0.2,0.5,0.3,0.6
	c0.1,0.1,0.3,0.2,0.5,0.3C166.1,156.5,166.4,156.6,166.8,156.6L166.8,156.6z M165,141.9v6.3h1c0.3,0,0.7,0,1.1-0.1
	c0.4,0,0.8-0.2,1.2-0.3c0.4-0.2,0.7-0.5,0.9-0.9c0.2-0.4,0.4-1,0.4-1.8c0-0.9-0.2-1.7-0.6-2.3c-0.4-0.6-1.2-0.9-2.3-0.9
	C166.7,141.9,165,141.9,165,141.9z M163.7,157.6c-0.5,0-1,0-1.5,0c-0.5,0-1,0-1.5,0.1c-0.2,0-0.3-0.1-0.3-0.2
	c-0.1-0.1-0.1-0.3-0.1-0.4c0-0.3,0.1-0.5,0.2-0.5c0.1,0,0.3-0.1,0.4-0.1c0.4,0,0.7-0.1,0.9-0.2c0.2-0.1,0.4-0.3,0.5-0.5
	s0.2-0.4,0.2-0.7c0-0.2,0-0.5,0-0.7V144c0-0.2,0-0.5,0-0.7c0-0.2-0.1-0.5-0.2-0.7c-0.1-0.2-0.3-0.4-0.5-0.5
	c-0.2-0.1-0.5-0.2-0.9-0.2c-0.2,0-0.3,0-0.4-0.1c-0.1,0-0.2-0.2-0.2-0.5c0-0.1,0-0.3,0.1-0.4c0.1-0.1,0.2-0.2,0.3-0.2
	c0.5,0,1,0.1,1.5,0.1c0.5,0,0.9,0,1.4,0h3.5c1,0,1.7,0.1,2.3,0.2c0.5,0.1,1,0.4,1.5,0.6c0.4,0.3,0.8,0.7,1,1.2s0.4,1.1,0.4,1.7
	c0,0.6-0.1,1.1-0.3,1.6c-0.2,0.5-0.5,0.8-0.8,1.2c-0.3,0.3-0.7,0.6-1.1,0.8c-0.4,0.2-0.7,0.3-1.1,0.4v0.1c0.7,0,1.3,0.1,1.8,0.3
	c0.5,0.2,1,0.5,1.4,0.8c0.4,0.4,0.7,0.8,0.9,1.2c0.2,0.5,0.4,0.9,0.4,1.5c0,1-0.2,1.8-0.6,2.5c-0.4,0.6-1,1.2-1.7,1.6
	c-0.7,0.4-1.4,0.7-2.2,0.8c-0.8,0.2-1.6,0.2-2.3,0.2L163.7,157.6L163.7,157.6z M184.4,156.6c0.5,0,1.1-0.1,1.6-0.2
	c0.5-0.1,0.9-0.4,1.3-0.7c0.4-0.3,0.7-0.7,0.9-1.2c0.2-0.5,0.3-1.2,0.3-1.9c0-0.4-0.1-0.8-0.3-1.2c-0.2-0.4-0.5-0.8-0.8-1
	c-0.4-0.3-0.9-0.6-1.5-0.7c-0.6-0.2-1.3-0.3-2.2-0.3h-1v5.3c0,0.4,0,0.8,0.1,1.1c0.1,0.3,0.2,0.5,0.3,0.6c0.1,0.1,0.3,0.2,0.5,0.3
	C183.8,156.5,184.1,156.6,184.4,156.6L184.4,156.6z M182.7,141.9v6.3h1c0.3,0,0.7,0,1.1-0.1c0.4,0,0.8-0.2,1.2-0.3
	c0.4-0.2,0.7-0.5,0.9-0.9c0.2-0.4,0.4-1,0.4-1.8c0-0.9-0.2-1.7-0.6-2.3c-0.4-0.6-1.2-0.9-2.3-0.9
	C184.4,141.9,182.7,141.9,182.7,141.9z M181.4,157.6c-0.5,0-1,0-1.5,0c-0.5,0-1,0-1.5,0.1c-0.2,0-0.3-0.1-0.3-0.2
	c-0.1-0.1-0.1-0.3-0.1-0.4c0-0.3,0.1-0.5,0.2-0.5c0.1,0,0.3-0.1,0.4-0.1c0.4,0,0.7-0.1,0.9-0.2c0.2-0.1,0.4-0.3,0.5-0.5
	c0.1-0.2,0.2-0.4,0.2-0.7c0-0.2,0-0.5,0-0.7V144c0-0.2,0-0.5,0-0.7c0-0.2-0.1-0.5-0.2-0.7c-0.1-0.2-0.3-0.4-0.5-0.5
	c-0.2-0.1-0.5-0.2-0.9-0.2c-0.2,0-0.3,0-0.4-0.1c-0.1,0-0.2-0.2-0.2-0.5c0-0.1,0-0.3,0.1-0.4c0.1-0.1,0.2-0.2,0.3-0.2
	c0.5,0,1,0.1,1.5,0.1c0.5,0,0.9,0,1.4,0h3.5c1,0,1.7,0.1,2.3,0.2c0.5,0.1,1,0.4,1.5,0.6c0.4,0.3,0.8,0.7,1,1.2
	c0.2,0.5,0.4,1.1,0.4,1.7c0,0.6-0.1,1.1-0.3,1.6c-0.2,0.5-0.5,0.8-0.8,1.2c-0.3,0.3-0.7,0.6-1.1,0.8c-0.4,0.2-0.7,0.3-1.1,0.4v0.1
	c0.6,0,1.2,0.1,1.8,0.3c0.6,0.2,1,0.5,1.4,0.8c0.4,0.4,0.7,0.8,0.9,1.2c0.2,0.5,0.4,0.9,0.4,1.5c0,1-0.2,1.8-0.6,2.5
	c-0.4,0.6-1,1.2-1.7,1.6c-0.7,0.4-1.4,0.7-2.2,0.8c-0.8,0.2-1.6,0.2-2.3,0.2C184.3,157.6,181.4,157.6,181.4,157.6z M200.3,154.5
	c0,0.2,0,0.5,0,0.7c0,0.2,0.1,0.5,0.2,0.7c0.1,0.2,0.3,0.3,0.5,0.5c0.2,0.1,0.5,0.2,0.9,0.2c0.2,0,0.3,0,0.4,0.1
	c0.1,0,0.2,0.2,0.2,0.5c0,0.1,0,0.3-0.1,0.4c-0.1,0.1-0.2,0.2-0.3,0.2c-1.5-0.1-3-0.1-4.5-0.1c-0.5,0-1,0-1.5,0.1
	c-0.2,0-0.3-0.1-0.3-0.2c-0.1-0.1-0.1-0.3-0.1-0.4c0-0.3,0.1-0.5,0.2-0.5c0.1,0,0.3-0.1,0.4-0.1c0.4,0,0.7-0.1,0.9-0.2
	c0.2-0.1,0.4-0.3,0.5-0.5s0.2-0.4,0.2-0.7c0-0.2,0-0.5,0.1-0.7V144c0-0.2,0-0.5-0.1-0.7c0-0.2-0.1-0.5-0.2-0.7
	c-0.1-0.2-0.3-0.4-0.5-0.5c-0.2-0.1-0.5-0.2-0.9-0.2c-0.2,0-0.3,0-0.4-0.1c-0.1,0-0.2-0.2-0.2-0.5c0-0.1,0-0.3,0.1-0.4
	c0.1-0.1,0.2-0.2,0.3-0.2c0.5,0,1,0.1,1.5,0.1c1.5,0,3,0,4.6-0.1c0.1,0,0.3,0.1,0.3,0.2c0.1,0.1,0.1,0.3,0.1,0.4
	c0,0.3-0.1,0.5-0.2,0.5c-0.1,0-0.3,0.1-0.4,0.1c-0.4,0-0.7,0.1-0.9,0.2c-0.2,0.1-0.4,0.3-0.5,0.5c-0.1,0.2-0.2,0.4-0.2,0.7
	c0,0.2,0,0.5,0,0.7L200.3,154.5L200.3,154.5z M210.6,144L210.6,144l0,10.5c0,0.2,0,0.5,0,0.7c0,0.2,0.1,0.5,0.2,0.7
	c0.1,0.2,0.3,0.3,0.5,0.5c0.2,0.1,0.5,0.2,0.9,0.2c0.2,0,0.3,0,0.4,0.1c0.1,0,0.2,0.2,0.2,0.5c0,0.1,0,0.3-0.1,0.4
	c-0.1,0.1-0.2,0.2-0.3,0.2c-0.3,0-0.5,0-0.7,0l-0.5,0c-0.2,0-0.4,0-0.5,0h-1.3c-0.2,0-0.3,0-0.5,0l-0.5,0c-0.2,0-0.4,0-0.7,0
	c-0.2,0-0.3-0.1-0.3-0.2c-0.1-0.1-0.1-0.3-0.1-0.4c0-0.3,0.1-0.5,0.2-0.5c0.1,0,0.3-0.1,0.4-0.1c0.4,0,0.7-0.1,0.9-0.2
	c0.2-0.1,0.4-0.3,0.5-0.5c0.1-0.2,0.2-0.4,0.2-0.7c0-0.2,0-0.5,0-0.7l0.1-10.5c0-0.4,0-0.7-0.1-1c-0.1-0.3-0.2-0.5-0.3-0.6
	c-0.1-0.1-0.3-0.3-0.5-0.3c-0.2-0.1-0.5-0.2-0.8-0.2c-0.2-0.1-0.4-0.1-0.5-0.1c-0.1,0-0.1-0.2-0.1-0.5c0-0.3,0.1-0.5,0.3-0.5
	c0.2,0,0.4,0,0.7,0c0.7,0,1.3,0,1.8,0.1c0.5,0.1,0.9,0.2,1.3,0.5c0.4,0.2,0.7,0.5,1.1,0.9s0.7,0.8,1.1,1.4l6.8,9.5h0.1l-0.1-9.1
	c0-0.2,0-0.5,0-0.7c0-0.2-0.1-0.5-0.2-0.7c-0.1-0.2-0.3-0.4-0.5-0.5c-0.2-0.1-0.5-0.2-0.9-0.2c-0.2,0-0.3,0-0.4-0.1
	c-0.1,0-0.2-0.2-0.2-0.5c0-0.1,0-0.3,0.1-0.4c0.1-0.1,0.2-0.2,0.3-0.2c0.3,0,0.5,0,0.7,0l0.5,0c0.2,0,0.3,0,0.5,0h1.3
	c0.2,0,0.3,0,0.5,0c0.2,0,0.3,0,0.5,0c0.2,0,0.4,0,0.7,0c0.2,0,0.3,0.1,0.3,0.2c0.1,0.1,0.1,0.3,0.1,0.4c0,0.3-0.1,0.5-0.2,0.5
	c-0.1,0-0.3,0.1-0.4,0.1c-0.4,0-0.7,0.1-0.9,0.2c-0.2,0.1-0.4,0.3-0.5,0.5c-0.1,0.2-0.2,0.4-0.2,0.7c0,0.2,0,0.5,0,0.7l0,13.4
	c0,0.1-0.1,0.2-0.2,0.3c-0.1,0-0.3,0.1-0.4,0.1c-0.3,0-0.6-0.1-0.7-0.3L210.6,144z M234.4,156.6c0.5,0,1.1-0.1,1.6-0.2
	c0.5-0.1,0.9-0.4,1.3-0.7s0.7-0.7,0.9-1.2s0.3-1.2,0.3-1.9c0-0.4-0.1-0.8-0.3-1.2c-0.2-0.4-0.5-0.8-0.8-1c-0.4-0.3-0.9-0.6-1.5-0.7
	c-0.6-0.2-1.3-0.3-2.2-0.3h-1v5.3c0,0.4,0,0.8,0.1,1.1c0.1,0.3,0.2,0.5,0.3,0.6c0.1,0.1,0.3,0.2,0.5,0.3
	C233.8,156.5,234.1,156.6,234.4,156.6L234.4,156.6z M232.6,141.9v6.3h1c0.3,0,0.7,0,1.1-0.1c0.4,0,0.8-0.2,1.2-0.3
	c0.4-0.2,0.7-0.5,0.9-0.9c0.2-0.4,0.4-1,0.4-1.8c0-0.9-0.2-1.7-0.6-2.3c-0.4-0.6-1.2-0.9-2.3-0.9
	C234.4,141.9,232.6,141.9,232.6,141.9z M231.3,157.6c-0.5,0-1,0-1.5,0c-0.5,0-1,0-1.5,0.1c-0.2,0-0.3-0.1-0.3-0.2
	c-0.1-0.1-0.1-0.3-0.1-0.4c0-0.3,0.1-0.5,0.2-0.5c0.1,0,0.3-0.1,0.4-0.1c0.4,0,0.7-0.1,0.9-0.2c0.2-0.1,0.4-0.3,0.5-0.5
	s0.2-0.4,0.2-0.7c0-0.2,0-0.5,0-0.7V144c0-0.2,0-0.5,0-0.7c0-0.2-0.1-0.5-0.2-0.7c-0.1-0.2-0.3-0.4-0.5-0.5
	c-0.2-0.1-0.5-0.2-0.9-0.2c-0.2,0-0.3,0-0.4-0.1c-0.1,0-0.2-0.2-0.2-0.5c0-0.1,0-0.3,0.1-0.4c0.1-0.1,0.2-0.2,0.3-0.2
	c0.5,0,1,0.1,1.5,0.1c0.5,0,0.9,0,1.4,0h3.5c1,0,1.7,0.1,2.3,0.2c0.5,0.1,1,0.4,1.5,0.6c0.4,0.3,0.8,0.7,1,1.2
	c0.2,0.5,0.4,1.1,0.4,1.7c0,0.6-0.1,1.1-0.3,1.6c-0.2,0.4-0.5,0.8-0.8,1.2c-0.3,0.3-0.7,0.6-1.1,0.8c-0.4,0.2-0.7,0.3-1.1,0.4v0.1
	c0.7,0,1.3,0.1,1.8,0.3c0.5,0.2,1,0.5,1.4,0.8c0.4,0.4,0.7,0.8,0.9,1.2c0.2,0.5,0.4,0.9,0.4,1.5c0,1-0.2,1.8-0.6,2.5
	c-0.4,0.6-1,1.2-1.7,1.6c-0.7,0.4-1.4,0.7-2.2,0.8c-0.8,0.2-1.6,0.2-2.3,0.2L231.3,157.6L231.3,157.6z M249.4,151.2h5.2l-2.5-6.8
	H252L249.4,151.2L249.4,151.2z M250.4,140.7c0.5,0,1,0,1.4,0.1c0.4,0.1,0.7,0.2,1,0.4c0.3,0.2,0.6,0.5,0.8,0.8
	c0.2,0.4,0.5,0.8,0.7,1.4l4.2,11c0.1,0.2,0.2,0.5,0.3,0.7c0.1,0.2,0.2,0.5,0.3,0.6c0.1,0.2,0.3,0.4,0.5,0.5c0.2,0.1,0.4,0.2,0.7,0.2
	c0.2,0,0.3,0,0.4,0.1c0.1,0,0.2,0.2,0.2,0.5c0,0.1,0,0.3-0.1,0.4c-0.1,0.1-0.2,0.2-0.3,0.2c-0.5,0-1-0.1-1.4-0.1
	c-1.5,0-2.9,0-4.4,0.1c-0.2,0-0.3-0.1-0.3-0.2c-0.1-0.1-0.1-0.3-0.1-0.4c0-0.3,0.1-0.5,0.2-0.5c0.1,0,0.3-0.1,0.4-0.1
	c0.4,0,0.7,0,0.9-0.1c0.2-0.1,0.4-0.2,0.4-0.4c0.1-0.2,0.1-0.4,0-0.6c-0.1-0.3-0.1-0.6-0.3-0.9l-0.8-2.2h-6.1
	c-0.4,1.1-0.7,1.8-0.8,2.2c-0.1,0.5-0.2,0.8-0.3,1.1c0,0.3,0,0.5,0.1,0.6c0.1,0.1,0.3,0.2,0.6,0.3c0.3,0,0.6,0.1,1.1,0.1
	c0.2,0,0.3,0,0.4,0.1c0.1,0,0.2,0.2,0.2,0.5c0,0.1,0,0.3-0.1,0.4c-0.1,0.1-0.2,0.2-0.3,0.2c-0.5,0-1-0.1-1.4-0.1c-0.4,0-0.8,0-1.3,0
	h-0.6c-0.2,0-0.4,0-0.5,0l-0.5,0c-0.2,0-0.4,0-0.7,0c-0.2,0-0.3-0.1-0.3-0.2c-0.1-0.1-0.1-0.3-0.1-0.4c0-0.3,0.1-0.5,0.2-0.5
	c0.1,0,0.3-0.1,0.4-0.1c0.3,0,0.6-0.1,0.8-0.2c0.2-0.1,0.4-0.3,0.5-0.5c0.1-0.2,0.3-0.4,0.4-0.7l0.3-0.7l4.3-11
	c0.1-0.3,0.2-0.6,0.1-0.8c0-0.2-0.1-0.3-0.2-0.5c-0.1-0.1-0.3-0.2-0.5-0.3c-0.2-0.1-0.4-0.1-0.6-0.1c-0.2-0.1-0.4-0.1-0.5-0.1
	c-0.1,0-0.1-0.2-0.1-0.5c0-0.3,0.1-0.5,0.3-0.5C249.9,140.8,250.1,140.7,250.4,140.7L250.4,140.7z M270.7,141.9
	c-0.3,0-0.6,0-0.9,0.1c-0.2,0-0.4,0.2-0.5,0.3c-0.1,0.2-0.2,0.4-0.3,0.7c-0.1,0.4-0.1,0.7-0.1,1.1v5.1h2.2c0.8,0,1.5-0.1,2-0.4
	c0.5-0.3,0.9-0.6,1.1-0.9c0.2-0.4,0.4-0.8,0.5-1.2c0.1-0.4,0.1-0.8,0.1-1.2c0-0.4-0.1-0.8-0.2-1.3c-0.1-0.4-0.4-0.8-0.7-1.1
	c-0.3-0.3-0.7-0.6-1.3-0.8C272.2,142,271.5,141.9,270.7,141.9L270.7,141.9z M273.6,149.6c0.6,1.1,1.3,2.1,1.9,3.2
	c0.6,1.1,1.4,2.1,2.2,3c0.2,0.2,0.5,0.4,0.7,0.5c0.2,0.1,0.5,0.2,0.8,0.2c0.1,0,0.3,0,0.4,0.1c0.1,0,0.2,0.2,0.2,0.5
	c0,0.1,0,0.3-0.1,0.4c-0.1,0.1-0.2,0.2-0.3,0.2l-0.7,0l-0.5,0c-0.2,0-0.3,0-0.5,0h-0.6c-0.7-0.1-1.3-0.4-1.7-0.8
	c-0.5-0.4-0.9-0.9-1.4-1.5c-0.5-0.7-0.9-1.3-1.3-2c-0.4-0.7-0.8-1.4-1.2-2c-0.1-0.2-0.2-0.3-0.3-0.5c-0.1-0.1-0.2-0.2-0.3-0.3
	c-0.2-0.1-0.3-0.2-0.5-0.2c-0.2,0-0.5-0.1-0.7-0.1H269v4.3c0,0.2,0,0.5,0,0.7c0,0.2,0.1,0.5,0.2,0.7s0.3,0.3,0.5,0.5
	c0.2,0.1,0.5,0.2,0.9,0.2c0.2,0,0.3,0,0.4,0.1c0.1,0,0.2,0.2,0.2,0.5c0,0.1,0,0.3-0.1,0.4c-0.1,0.1-0.2,0.2-0.3,0.2
	c-1.5-0.1-3-0.1-4.5-0.1c-0.5,0-1,0-1.5,0.1c-0.2,0-0.3-0.1-0.3-0.2c-0.1-0.1-0.1-0.3-0.1-0.4c0-0.3,0.1-0.5,0.2-0.5
	c0.1,0,0.3-0.1,0.4-0.1c0.4,0,0.7-0.1,0.9-0.2c0.2-0.1,0.4-0.3,0.5-0.5s0.2-0.4,0.2-0.7c0-0.2,0-0.5,0-0.7V144c0-0.2,0-0.5,0-0.7
	c0-0.2-0.1-0.5-0.2-0.7c-0.1-0.2-0.3-0.4-0.5-0.5c-0.2-0.1-0.5-0.2-0.9-0.2c-0.2,0-0.3,0-0.4-0.1c-0.1,0-0.2-0.2-0.2-0.5
	c0-0.1,0-0.3,0.1-0.4c0.1-0.1,0.2-0.2,0.3-0.2c0.5,0,1,0.1,1.5,0.1c0.5,0,1,0,1.5,0h4.3c1,0,1.9,0.2,2.6,0.4c0.7,0.3,1.3,0.6,1.8,1
	c0.5,0.4,0.8,0.9,1,1.4c0.2,0.5,0.3,1,0.3,1.6c0,0.5-0.1,0.9-0.3,1.4c-0.2,0.5-0.4,0.9-0.8,1.3c-0.3,0.4-0.8,0.7-1.3,1
	C274.8,149.2,274.2,149.5,273.6,149.6z M126.8,176v4.7c0,0.2,0,0.5,0,0.7c0,0.2,0.1,0.5,0.2,0.7c0.1,0.2,0.3,0.3,0.5,0.5
	c0.2,0.1,0.5,0.2,0.9,0.2c0.2,0,0.3,0,0.4,0.1c0.1,0,0.2,0.2,0.2,0.5c0,0.1,0,0.3-0.1,0.4c-0.1,0.1-0.2,0.2-0.3,0.2
	c-1.5-0.1-3-0.1-4.5-0.1c-0.5,0-1,0-1.5,0.1c-0.2,0-0.3-0.1-0.3-0.2c-0.1-0.1-0.1-0.3-0.1-0.4c0-0.3,0.1-0.5,0.2-0.5
	c0.1,0,0.3-0.1,0.4-0.1c0.4,0,0.7-0.1,0.9-0.2c0.2-0.1,0.4-0.3,0.5-0.5c0.1-0.2,0.2-0.4,0.2-0.7c0-0.2,0-0.5,0-0.7v-10.5
	c0-0.2,0-0.5,0-0.7c0-0.2-0.1-0.5-0.2-0.7c-0.1-0.2-0.3-0.4-0.5-0.5c-0.2-0.1-0.5-0.2-0.9-0.2c-0.2,0-0.3,0-0.4-0.1
	c-0.1,0-0.2-0.2-0.2-0.5c0-0.1,0-0.3,0.1-0.4c0.1-0.1,0.2-0.2,0.3-0.2c0.5,0,1,0.1,1.5,0.1c1.5,0,3,0,4.5-0.1c0.2,0,0.3,0.1,0.3,0.2
	c0.1,0.1,0.1,0.3,0.1,0.4c0,0.3-0.1,0.5-0.2,0.5c-0.1,0-0.3,0.1-0.4,0.1c-0.4,0-0.7,0.1-0.9,0.2s-0.4,0.3-0.5,0.5
	c-0.1,0.2-0.2,0.4-0.2,0.7c0,0.2,0,0.5,0,0.7v4.7h7.8v-4.7c0-0.2,0-0.5,0-0.7c0-0.2-0.1-0.5-0.2-0.7c-0.1-0.2-0.3-0.4-0.5-0.5
	c-0.2-0.1-0.5-0.2-0.9-0.2c-0.2,0-0.3,0-0.4-0.1c-0.1,0-0.2-0.2-0.2-0.5c0-0.1,0-0.3,0.1-0.4c0.1-0.1,0.2-0.2,0.3-0.2
	c1.5,0.1,3,0.1,4.6,0.1c0.5,0,1,0,1.5-0.1c0.1,0,0.3,0.1,0.3,0.2c0.1,0.1,0.1,0.3,0.1,0.4c0,0.3-0.1,0.5-0.2,0.5
	c-0.1,0-0.3,0.1-0.4,0.1c-0.4,0-0.7,0.1-0.9,0.2c-0.2,0.1-0.4,0.3-0.5,0.5c-0.1,0.2-0.2,0.4-0.2,0.7c0,0.2,0,0.5,0,0.7v10.5
	c0,0.2,0,0.5,0,0.7c0,0.2,0.1,0.5,0.2,0.7c0.1,0.2,0.3,0.3,0.5,0.5c0.2,0.1,0.5,0.2,0.9,0.2c0.2,0,0.3,0,0.4,0.1
	c0.1,0,0.2,0.2,0.2,0.5c0,0.1,0,0.3-0.1,0.4c-0.1,0.1-0.2,0.2-0.3,0.2c-0.5,0-1-0.1-1.5-0.1c-0.5,0-1,0-1.5,0c-1,0-2,0-3.1,0.1
	c-0.1,0-0.3-0.1-0.3-0.2c-0.1-0.1-0.1-0.3-0.1-0.4c0-0.3,0.1-0.5,0.2-0.5c0.1,0,0.3-0.1,0.4-0.1c0.4,0,0.7-0.1,0.9-0.2
	c0.2-0.1,0.4-0.3,0.5-0.5c0.1-0.2,0.2-0.4,0.2-0.7c0-0.2,0-0.5,0-0.7V176C134.6,176,126.8,176,126.8,176z M151.1,183.2
	c0.9,0,1.6-0.2,2.3-0.6c0.6-0.4,1.2-1,1.6-1.8c0.4-0.7,0.7-1.6,0.9-2.5c0.2-1,0.3-2,0.3-3c0-1-0.1-1.9-0.3-2.8
	c-0.2-0.9-0.5-1.7-0.9-2.4c-0.4-0.7-0.9-1.2-1.6-1.6c-0.6-0.4-1.4-0.6-2.2-0.6c-0.9,0-1.6,0.2-2.3,0.6c-0.6,0.4-1.1,1-1.6,1.7
	c-0.4,0.7-0.7,1.6-0.9,2.5c-0.2,1-0.3,2-0.3,3c0,1,0.1,2,0.3,2.9c0.2,0.9,0.5,1.7,0.9,2.4c0.4,0.7,0.9,1.2,1.6,1.7
	C149.6,183,150.3,183.2,151.1,183.2L151.1,183.2z M151.2,166.6c1.2,0,2.4,0.2,3.3,0.7c1,0.5,1.8,1.1,2.5,1.9
	c0.7,0.8,1.2,1.8,1.6,2.8c0.4,1,0.6,2.1,0.6,3.2c0,1.5-0.2,2.8-0.7,3.9c-0.5,1.1-1.1,2.1-1.9,2.9c-0.7,0.8-1.6,1.4-2.6,1.8
	c-1,0.4-1.9,0.6-2.8,0.6c-1.2,0-2.3-0.2-3.3-0.7c-1-0.5-1.8-1.1-2.5-1.9c-0.7-0.8-1.2-1.8-1.6-2.8c-0.4-1-0.6-2.1-0.6-3.3
	c0-1.5,0.2-2.8,0.7-3.9c0.5-1.1,1.1-2.1,1.9-2.9c0.7-0.8,1.6-1.4,2.6-1.8C149.3,166.8,150.3,166.6,151.2,166.6L151.2,166.6z
	 M173.2,183.7c0,0.1-0.1,0.2-0.2,0.2c-0.1,0-0.2,0.1-0.3,0.1c-0.1,0-0.2,0-0.3-0.1c-0.1,0-0.2-0.1-0.2-0.2l-5.6-13.5h-0.1l0,10.5
	c0,0.2,0,0.5,0,0.7c0,0.2,0.1,0.5,0.2,0.7c0.1,0.2,0.3,0.4,0.5,0.5c0.2,0.1,0.5,0.2,0.9,0.2c0.2,0,0.3,0,0.4,0.1
	c0.1,0,0.2,0.2,0.2,0.5c0,0.1,0,0.3-0.1,0.4c-0.1,0.1-0.2,0.2-0.3,0.2c-0.3,0-0.5,0-0.7,0l-0.5,0c-0.2,0-0.3,0-0.5,0h-1.3
	c-0.2,0-0.4,0-0.5,0c-0.2,0-0.4,0-0.6,0c-0.2,0-0.4,0-0.7,0c-0.2,0-0.3-0.1-0.3-0.2c-0.1-0.1-0.1-0.3-0.1-0.4c0-0.3,0.1-0.5,0.2-0.5
	c0.1,0,0.3-0.1,0.4-0.1c0.4,0,0.7-0.1,0.9-0.2s0.4-0.3,0.5-0.5c0.1-0.2,0.2-0.4,0.2-0.7c0-0.2,0-0.5,0-0.7l0-10.5c0-0.4,0-0.8-0.1-1
	c-0.1-0.2-0.2-0.4-0.3-0.6c-0.1-0.1-0.3-0.3-0.5-0.3c-0.2-0.1-0.5-0.2-0.7-0.2c-0.2,0-0.3-0.1-0.5-0.1c-0.1,0-0.1-0.2-0.1-0.5
	c0-0.3,0.1-0.5,0.3-0.5s0.4,0,0.7,0c0.6,0,1.2,0,1.7,0.1c0.5,0.1,0.9,0.2,1.4,0.4c0.4,0.2,0.8,0.5,1.1,0.8c0.3,0.4,0.6,0.8,0.8,1.4
	l4.3,10.2h0.1l4.9-12.9h1.4c0.5,0,1,0,1.5,0c0.5,0,1,0,1.5-0.1c0.2,0,0.3,0.1,0.3,0.2c0.1,0.1,0.1,0.3,0.1,0.4
	c0,0.3-0.1,0.5-0.2,0.5c-0.1,0-0.3,0.1-0.4,0.1c-0.4,0-0.7,0.1-0.9,0.2c-0.2,0.1-0.4,0.3-0.5,0.5c-0.1,0.2-0.2,0.4-0.2,0.7
	c0,0.2,0,0.5,0,0.7v10.5c0,0.2,0,0.5,0,0.7c0,0.2,0.1,0.5,0.2,0.7c0.1,0.2,0.3,0.3,0.5,0.5c0.2,0.1,0.5,0.2,0.9,0.2
	c0.2,0,0.3,0,0.4,0.1c0.1,0,0.2,0.2,0.2,0.5c0,0.1,0,0.3-0.1,0.4c-0.1,0.1-0.2,0.2-0.3,0.2c-0.5,0-1-0.1-1.5-0.1c-0.5,0-1,0-1.5,0
	c-1,0-2,0-3.1,0.1c-0.2,0-0.3-0.1-0.3-0.2c-0.1-0.1-0.1-0.3-0.1-0.4c0-0.3,0.1-0.5,0.2-0.5c0.1,0,0.3-0.1,0.4-0.1
	c0.4,0,0.7-0.1,0.9-0.2c0.2-0.1,0.4-0.3,0.5-0.5c0.1-0.2,0.2-0.4,0.2-0.7c0-0.2,0-0.5,0-0.7v-10.5h-0.1L173.2,183.7L173.2,183.7z
	 M198.9,167.1c0.2,0,0.3,0,0.5,0.1c0.1,0.1,0.2,0.3,0.2,0.5l0.1,3.7c0,0.2-0.1,0.3-0.2,0.4c-0.1,0.1-0.3,0.1-0.4,0.1
	c-0.2,0-0.3,0-0.5-0.1c-0.1-0.1-0.2-0.2-0.3-0.4c-0.1-0.6-0.2-1.1-0.3-1.5c-0.1-0.4-0.2-0.8-0.4-1c-0.2-0.3-0.4-0.5-0.7-0.6
	c-0.3-0.1-0.6-0.2-1.1-0.2h-3.3v6.7h4.5c0.1,0,0.2,0.1,0.3,0.2c0.1,0.1,0.1,0.3,0.1,0.4c0,0.1,0,0.3-0.1,0.4
	c-0.1,0.1-0.2,0.2-0.3,0.2h-4.5v5l0,0.6c0,0.2,0.1,0.4,0.2,0.6c0.1,0.2,0.3,0.3,0.5,0.4c0.2,0.1,0.6,0.2,1,0.1h2.3
	c0.4,0,0.8-0.1,1.1-0.2c0.3-0.1,0.5-0.3,0.7-0.5c0.2-0.2,0.3-0.6,0.5-0.9c0.1-0.4,0.3-0.9,0.4-1.5c0.1-0.2,0.2-0.3,0.3-0.3
	c0.2-0.1,0.3-0.1,0.5,0c0.1,0,0.3,0.1,0.4,0.2c0.1,0.1,0.2,0.2,0.2,0.4l-0.5,3.3c-0.1,0.2-0.1,0.4-0.2,0.5c-0.1,0.1-0.3,0.1-0.5,0.1
	h-8.2c-0.5,0-1,0-1.5,0c-0.5,0-1,0-1.5,0.1c-0.1,0-0.3-0.1-0.3-0.2c-0.1-0.1-0.1-0.3-0.1-0.4c0-0.3,0.1-0.5,0.2-0.5
	c0.1,0,0.3-0.1,0.4-0.1c0.4,0,0.7-0.1,0.9-0.2c0.2-0.1,0.4-0.3,0.5-0.5c0.1-0.2,0.2-0.4,0.2-0.7c0-0.2,0-0.5,0-0.7v-10.5
	c0-0.2,0-0.5,0-0.7c0-0.2-0.1-0.5-0.2-0.7c-0.1-0.2-0.3-0.4-0.5-0.5c-0.2-0.1-0.5-0.2-0.9-0.2c-0.2,0-0.3,0-0.4-0.1
	c-0.1,0-0.2-0.2-0.2-0.5c0-0.1,0-0.3,0.1-0.4c0.1-0.1,0.2-0.2,0.3-0.2c0.5,0,1.1,0.1,1.5,0.1c0.5,0,0.9,0,1.4,0H198.9L198.9,167.1z
	 M210.4,183.3c0.5,0,1-0.1,1.4-0.3c0.4-0.2,0.8-0.4,1.1-0.7c0.3-0.3,0.5-0.6,0.7-1s0.2-0.7,0.2-1.1c0-0.7-0.2-1.3-0.6-1.8
	c-0.4-0.5-1-0.9-1.5-1.2c-0.6-0.4-1.3-0.7-2-1c-0.7-0.3-1.4-0.7-2-1.1c-0.6-0.4-1.2-0.9-1.6-1.5c-0.4-0.6-0.6-1.4-0.7-2.3
	c0-0.8,0.1-1.5,0.4-2.1c0.2-0.6,0.6-1.1,1.1-1.5c0.5-0.4,1.1-0.7,1.7-0.8c0.7-0.2,1.4-0.3,2.1-0.3c0.5,0,1.1,0.1,1.7,0.2
	c0.5,0.1,1,0.3,1.5,0.6c0.4,0.3,0.8,0.6,1.1,1c0.3,0.4,0.4,0.9,0.4,1.5c0,0.6-0.2,1.2-0.6,1.6c-0.4,0.4-0.9,0.6-1.6,0.6
	c-0.4,0-0.7-0.2-0.9-0.4c-0.2-0.2-0.3-0.4-0.3-0.5c0,0,0.1-0.1,0.2-0.1c0.3-0.1,0.6-0.4,0.8-0.7c0.1-0.2,0.2-0.4,0.2-0.8
	c0-0.7-0.2-1.2-0.7-1.6c-0.5-0.4-1.1-0.5-1.8-0.5c-0.5,0-1,0.1-1.4,0.2c-0.4,0.2-0.7,0.3-1,0.6c-0.2,0.2-0.4,0.5-0.5,0.8
	c-0.1,0.3-0.2,0.6-0.2,1c0,0.7,0.2,1.2,0.5,1.6c0.3,0.4,0.8,0.8,1.5,1.2c0.7,0.4,1.5,0.8,2.3,1.2c0.8,0.4,1.5,0.8,2.1,1.2
	c0.6,0.4,1.2,1,1.6,1.7c0.4,0.7,0.6,1.5,0.6,2.5c0,0.7-0.2,1.3-0.5,1.9c-0.3,0.6-0.7,1.1-1.2,1.5c-0.6,0.4-1.2,0.8-1.9,1
	c-0.7,0.2-1.5,0.4-2.3,0.4c-1.7,0-3.1-0.3-4-1c-0.9-0.6-1.4-1.6-1.4-2.9c0-0.6,0.2-1.2,0.6-1.6c0.4-0.4,0.9-0.6,1.6-0.6
	c0.4,0,0.7,0.2,0.9,0.4c0.2,0.2,0.3,0.4,0.3,0.5c0,0,0,0.1-0.1,0.1c-0.3,0.1-0.5,0.4-0.6,0.7c-0.1,0.2-0.1,0.4-0.1,0.8
	c0,0.8,0.2,1.4,0.7,1.9C208.7,183.1,209.4,183.3,210.4,183.3L210.4,183.3z M233.4,167.1c0.2,0,0.3,0,0.5,0.1
	c0.1,0.1,0.2,0.3,0.2,0.5l0.1,3.7c0,0.2-0.1,0.3-0.2,0.4c-0.1,0.1-0.3,0.1-0.4,0.1c-0.2,0-0.4,0-0.5-0.1c-0.2-0.1-0.3-0.2-0.3-0.4
	c-0.1-0.6-0.2-1.1-0.3-1.5c-0.1-0.4-0.2-0.7-0.4-1.1c-0.2-0.3-0.4-0.5-0.7-0.6c-0.3-0.1-0.6-0.2-1.1-0.2h-1.7v12.6
	c0,0.2,0,0.5,0,0.7c0,0.2,0.1,0.5,0.2,0.7c0.1,0.2,0.3,0.4,0.5,0.5c0.2,0.1,0.5,0.2,0.9,0.2c0.2,0,0.3,0,0.4,0.1
	c0.1,0,0.2,0.2,0.2,0.5c0,0.1,0,0.3-0.1,0.4c-0.1,0.1-0.2,0.2-0.3,0.2c-0.5,0-1-0.1-1.5-0.1c-1.5,0-3,0-4.5,0.1
	c-0.2,0-0.3-0.1-0.3-0.2c-0.1-0.1-0.1-0.3-0.1-0.4c0-0.3,0.1-0.5,0.2-0.5c0.1,0,0.3-0.1,0.4-0.1c0.4,0,0.7-0.1,0.9-0.2
	c0.2-0.1,0.4-0.3,0.5-0.5c0.1-0.2,0.2-0.4,0.2-0.7c0-0.2,0-0.5,0-0.7v-12.6h-1.7c-0.4,0-0.8,0.1-1.1,0.2c-0.3,0.1-0.5,0.3-0.7,0.6
	c-0.2,0.3-0.3,0.6-0.4,1.1c-0.1,0.4-0.2,0.9-0.3,1.5c0,0.2-0.1,0.3-0.3,0.4c-0.2,0.1-0.4,0.1-0.5,0.1c-0.1,0-0.3-0.1-0.4-0.1
	c-0.1-0.1-0.2-0.2-0.2-0.4l0.1-3.7c0-0.2,0.1-0.4,0.2-0.5c0.1-0.1,0.3-0.1,0.5-0.1L233.4,167.1L233.4,167.1z M249.3,167.1
	c0.2,0,0.3,0,0.5,0.1c0.1,0.1,0.2,0.3,0.2,0.5l0.1,3.7c0,0.2-0.1,0.3-0.2,0.4c-0.1,0.1-0.3,0.1-0.4,0.1c-0.2,0-0.3,0-0.5-0.1
	c-0.1-0.1-0.2-0.2-0.3-0.4c-0.1-0.6-0.2-1.1-0.3-1.5c-0.1-0.4-0.2-0.8-0.4-1c-0.2-0.3-0.4-0.5-0.7-0.6c-0.3-0.1-0.6-0.2-1.1-0.2
	h-3.3v6.7h4.5c0.1,0,0.2,0.1,0.3,0.2c0.1,0.1,0.1,0.3,0.1,0.4c0,0.1,0,0.3-0.1,0.4c-0.1,0.1-0.2,0.2-0.3,0.2h-4.5v5
	c0,0.2,0,0.4,0,0.6c0,0.2,0.1,0.4,0.2,0.6c0.1,0.2,0.3,0.3,0.5,0.4c0.2,0.1,0.6,0.2,1,0.1h2.3c0.4,0,0.8-0.1,1.1-0.2
	c0.3-0.1,0.5-0.3,0.7-0.5c0.2-0.2,0.3-0.6,0.5-0.9c0.1-0.4,0.3-0.9,0.4-1.5c0.1-0.2,0.2-0.3,0.3-0.3c0.2-0.1,0.3-0.1,0.5,0
	c0.1,0,0.3,0.1,0.4,0.2c0.1,0.1,0.2,0.2,0.2,0.4l-0.5,3.3c-0.1,0.2-0.1,0.4-0.2,0.5c-0.1,0.1-0.3,0.1-0.5,0.1h-8.2c-0.5,0-1,0-1.5,0
	c-0.5,0-1,0-1.5,0.1c-0.1,0-0.3-0.1-0.3-0.2c-0.1-0.1-0.1-0.3-0.1-0.4c0-0.3,0.1-0.5,0.2-0.5c0.1,0,0.3-0.1,0.4-0.1
	c0.4,0,0.7-0.1,0.9-0.2c0.2-0.1,0.4-0.3,0.5-0.5c0.1-0.2,0.2-0.4,0.2-0.7c0-0.2,0-0.5,0-0.7v-10.5c0-0.2,0-0.5,0-0.7
	c0-0.2-0.1-0.5-0.2-0.7c-0.1-0.2-0.3-0.4-0.5-0.5c-0.2-0.1-0.5-0.2-0.9-0.2c-0.2,0-0.3,0-0.4-0.1c-0.1,0-0.2-0.2-0.2-0.5
	c0-0.1,0-0.3,0.1-0.4c0.1-0.1,0.2-0.2,0.3-0.2c0.5,0,1.1,0.1,1.5,0.1c0.5,0,0.9,0,1.4,0H249.3L249.3,167.1z M259.1,177.4h5.2
	l-2.5-6.8h-0.1L259.1,177.4z M260.1,166.9c0.5,0,1,0,1.4,0.1c0.4,0.1,0.7,0.2,1,0.4c0.3,0.2,0.6,0.5,0.8,0.8
	c0.2,0.4,0.5,0.8,0.7,1.4l4.2,11c0.1,0.2,0.2,0.5,0.3,0.7c0.1,0.2,0.2,0.5,0.3,0.6c0.1,0.2,0.3,0.4,0.5,0.5c0.2,0.1,0.4,0.2,0.7,0.2
	c0.2,0,0.3,0,0.4,0.1c0.1,0,0.2,0.2,0.2,0.5c0,0.1,0,0.3-0.1,0.4c-0.1,0.1-0.2,0.2-0.3,0.2c-0.5,0-1-0.1-1.4-0.1
	c-1.5,0-2.9,0-4.4,0.1c-0.2,0-0.3-0.1-0.3-0.2c-0.1-0.1-0.1-0.3-0.1-0.4c0-0.3,0.1-0.5,0.2-0.5c0.1,0,0.3-0.1,0.4-0.1
	c0.4,0,0.7,0,0.9-0.1c0.2-0.1,0.4-0.2,0.4-0.4c0.1-0.2,0.1-0.4,0-0.6c-0.1-0.3-0.1-0.6-0.3-0.9l-0.8-2.2h-6.1
	c-0.3,0.7-0.5,1.5-0.8,2.2c-0.1,0.5-0.2,0.8-0.3,1.1c0,0.3,0,0.5,0.1,0.6c0.1,0.1,0.3,0.2,0.6,0.3c0.3,0,0.6,0.1,1.1,0.1
	c0.2,0,0.3,0,0.4,0.1c0.1,0,0.2,0.2,0.2,0.5c0,0.1,0,0.3-0.1,0.4c-0.1,0.1-0.2,0.2-0.3,0.2c-0.5,0-1-0.1-1.4-0.1c-0.4,0-0.8,0-1.3,0
	h-0.6c-0.2,0-0.4,0-0.5,0c-0.2,0-0.4,0-0.5,0c-0.2,0-0.4,0-0.7,0c-0.2,0-0.3-0.1-0.3-0.2c-0.1-0.1-0.1-0.3-0.1-0.4
	c0-0.3,0.1-0.5,0.2-0.5c0.1,0,0.3-0.1,0.4-0.1c0.3,0,0.6-0.1,0.8-0.2c0.2-0.1,0.4-0.3,0.5-0.5c0.1-0.2,0.3-0.4,0.4-0.7l0.3-0.7
	l4.3-11c0.1-0.3,0.2-0.6,0.1-0.8c0-0.2-0.1-0.3-0.2-0.5c-0.1-0.1-0.3-0.2-0.5-0.3c-0.2-0.1-0.4-0.1-0.6-0.1
	c-0.2-0.1-0.4-0.1-0.5-0.1c-0.1,0-0.1-0.2-0.1-0.5c0-0.3,0.1-0.5,0.3-0.5S259.8,166.9,260.1,166.9L260.1,166.9z M286.6,175.5
	c0-1.1-0.1-2.1-0.4-3c-0.3-0.9-0.7-1.7-1.2-2.4c-0.5-0.7-1.2-1.2-1.9-1.6c-0.8-0.4-1.6-0.6-2.6-0.6c-0.1,0-0.8,0-1.9,0v13
	c0,0.7,0.2,1.2,0.6,1.4c0.4,0.2,1,0.4,1.9,0.4c1,0,1.9-0.2,2.6-0.5c0.7-0.3,1.3-0.8,1.7-1.5c0.4-0.6,0.8-1.4,1-2.3
	S286.6,176.6,286.6,175.5L286.6,175.5z M281,167.1c1.1,0,2.3,0.2,3.3,0.6c1,0.4,1.9,0.9,2.7,1.7c0.8,0.7,1.4,1.6,1.8,2.7
	c0.4,1.1,0.7,2.2,0.7,3.6c0,1.4-0.3,2.6-0.8,3.7c-0.5,1-1.2,1.9-2,2.6c-0.9,0.7-1.8,1.2-2.9,1.5c-1.1,0.3-2.2,0.5-3.3,0.5h-3.4
	c-0.5,0-1,0-1.4,0c-0.5,0-1,0-1.5,0.1c-0.1,0-0.3-0.1-0.3-0.2c-0.1-0.1-0.1-0.3-0.1-0.4c0-0.3,0.1-0.5,0.2-0.5
	c0.1,0,0.3-0.1,0.4-0.1c0.4,0,0.7-0.1,0.9-0.2c0.2-0.1,0.4-0.3,0.5-0.5c0.1-0.2,0.2-0.4,0.2-0.7c0-0.2,0-0.5,0-0.7v-10.5
	c0-0.2,0-0.5,0-0.7c0-0.2-0.1-0.5-0.2-0.7c-0.1-0.2-0.3-0.4-0.5-0.5c-0.2-0.1-0.5-0.2-0.9-0.2c-0.2,0-0.3,0-0.4-0.1
	c-0.1,0-0.2-0.2-0.2-0.5c0-0.1,0-0.3,0.1-0.4c0.1-0.1,0.2-0.2,0.3-0.2c0.5,0,1.1,0.1,1.5,0.1c0.5,0,0.9,0,1.4,0H281L281,167.1z"/>
</svg>
