<?xml version="1.0" encoding="utf-8"?>
<!-- Generator: Adobe Illustrator 26.3.1, SVG Export Plug-In . SVG Version: 6.00 Build 0)  -->
<svg version="1.1" id="Layer_1" xmlns="http://www.w3.org/2000/svg" xmlns:xlink="http://www.w3.org/1999/xlink" x="0px" y="0px"
	 viewBox="0 0 175 175" style="enable-background:new 0 0 175 175;" xml:space="preserve">
<style type="text/css">
	.st0{fill:#FFFFFF;stroke:#FFFFFF;stroke-miterlimit:10;}
	.st1{fill:#D9531E;}
	.st2{fill:#C3B600;}
	.st3{fill:#425968;}
	.st4{fill:#9FA617;}
	.st5{fill:#4F8ABE;}
	.st6{fill:#A84D10;}
	.st7{fill:#817C00;}
</style>
<rect x="0" y="0" class="st0" width="175" height="175"/>
<path class="st1" d="M41.7,106.7L41.7,106.7l-7.2,4.7c-2.3-3.7-4-7.7-5.2-11.9l-9.4,1.6c0.8,3,1.9,6,3.3,9
	c6.2,12.8,17.4,21.7,30,25.6l4.8-17c-0.8-0.3-1.6-0.5-2.4-0.9C49.8,115.4,45,111.5,41.7,106.7"/>
<path class="st2" d="M50.4,57.8l-1.9-3.3c0,0,0.1,0,0.1,0l-0.5-1c11.7-5.9,25.7-6.8,38.6-1.4l4.3-7.3C71.5,34.3,46.6,37.9,31.1,55
	c-4.7,5.2-8.1,11.1-10.2,17.3l16.6,5.9c0.2-0.7,0.5-1.3,0.7-1.9C41,69.4,46,64.1,52,60.7L50.4,57.8L50.4,57.8z"/>
<path class="st3" d="M97.6,120.6v5.7h-1v-5.7h-1.8v-0.9h4.6v0.9L97.6,120.6z M103,125.8c-0.3,0.3-0.8,0.6-1.4,0.6
	c-0.6,0-1.1-0.2-1.4-0.6c-0.4-0.5-0.5-1.1-0.5-1.8c0-0.8,0.1-1.4,0.6-1.8c0.3-0.3,0.8-0.6,1.4-0.6c0.6,0,1.1,0.2,1.4,0.6
	c0.4,0.5,0.5,1.1,0.5,1.8C103.6,124.7,103.5,125.3,103,125.8 M102.3,122.6c-0.2-0.2-0.4-0.3-0.7-0.3s-0.5,0.1-0.7,0.3
	c-0.3,0.3-0.3,0.8-0.3,1.3s0,1,0.3,1.3c0.2,0.2,0.4,0.3,0.7,0.3s0.5-0.1,0.7-0.3c0.3-0.3,0.3-0.8,0.3-1.3
	C102.6,123.4,102.6,122.9,102.3,122.6 M107.5,125.8c-0.3,0.3-0.8,0.6-1.4,0.6c-0.6,0-1.1-0.2-1.4-0.6c-0.4-0.5-0.5-1.1-0.5-1.8
	c0-0.8,0.1-1.4,0.6-1.8c0.3-0.3,0.7-0.6,1.4-0.6s1.1,0.2,1.4,0.6c0.4,0.5,0.6,1.1,0.6,1.8C108,124.7,107.9,125.3,107.5,125.8
	 M106.8,122.6c-0.2-0.2-0.4-0.3-0.7-0.3s-0.5,0.1-0.7,0.3c-0.3,0.3-0.3,0.8-0.3,1.3s0,1,0.3,1.3c0.2,0.2,0.4,0.3,0.7,0.3
	s0.5-0.1,0.7-0.3c0.3-0.3,0.3-0.8,0.3-1.3C107.1,123.4,107.1,122.9,106.8,122.6"/>
<path class="st3" d="M113.4,126.3h-0.8l-1.1-3.3l-1.1,3.3h-0.8l-1.4-4.7h1l0.9,3.3l1.1-3.3h0.7l1.1,3.3l0.9-3.3h1L113.4,126.3z
	 M118.3,125.8c-0.3,0.3-0.8,0.6-1.4,0.6c-0.6,0-1.1-0.2-1.4-0.6c-0.4-0.5-0.5-1.1-0.5-1.8c0-0.8,0.1-1.4,0.6-1.8
	c0.3-0.3,0.8-0.6,1.4-0.6c0.6,0,1.1,0.2,1.4,0.6c0.4,0.5,0.6,1.1,0.6,1.8C118.9,124.7,118.8,125.3,118.3,125.8 M117.6,122.6
	c-0.2-0.2-0.4-0.3-0.7-0.3s-0.5,0.1-0.7,0.3c-0.3,0.3-0.3,0.8-0.3,1.3s0,1,0.3,1.3c0.2,0.2,0.4,0.3,0.7,0.3s0.5-0.1,0.7-0.3
	c0.3-0.3,0.3-0.8,0.3-1.3C117.9,123.4,117.9,122.9,117.6,122.6 M122.8,125.8c-0.3,0.3-0.8,0.6-1.4,0.6c-0.6,0-1.1-0.2-1.4-0.6
	c-0.4-0.5-0.5-1.1-0.5-1.8c0-0.8,0.1-1.4,0.6-1.8c0.3-0.3,0.8-0.6,1.4-0.6c0.6,0,1.1,0.2,1.4,0.6c0.4,0.5,0.5,1.1,0.5,1.8
	C123.3,124.7,123.2,125.3,122.8,125.8 M122.1,122.6c-0.2-0.2-0.4-0.3-0.7-0.3s-0.5,0.1-0.7,0.3c-0.3,0.3-0.3,0.8-0.3,1.3
	s0,1,0.3,1.3c0.2,0.2,0.4,0.3,0.7,0.3s0.5-0.1,0.7-0.3c0.3-0.3,0.3-0.8,0.3-1.3C122.4,123.4,122.4,122.9,122.1,122.6"/>
<path class="st3" d="M129.8,126.3v-2.8c0-0.7-0.4-1-0.9-1c-0.5,0-1,0.3-1,1v2.9H127v-2.8c0-0.7-0.4-1-0.9-1c-0.5,0-1,0.3-1,1v2.8
	h-0.9v-4.7h0.9v0.5c0.3-0.3,0.8-0.5,1.2-0.5c0.6,0,1,0.2,1.3,0.7c0.4-0.5,0.8-0.7,1.4-0.7c0.5,0,0.9,0.2,1.2,0.4
	c0.4,0.3,0.5,0.8,0.5,1.3v3L129.8,126.3L129.8,126.3z M135,125.9c-0.3,0.3-0.7,0.4-1.1,0.4c-0.5,0-0.9-0.1-1.2-0.6v0.5h-0.9v-6.6
	h0.9v2.4c0.3-0.4,0.7-0.5,1.2-0.5c0.5,0,0.9,0.2,1.1,0.4c0.5,0.5,0.5,1.3,0.5,2S135.5,125.4,135,125.9 M133.6,122.4
	c-0.8,0-1,0.7-1,1.5c0,0.8,0.1,1.6,1,1.6c0.8,0,1-0.7,1-1.6C134.6,123.1,134.5,122.4,133.6,122.4"/>
<path class="st3" d="M138.8,126.3v-0.4c-0.3,0.3-0.7,0.5-1.2,0.5s-1-0.1-1.2-0.4c-0.2-0.2-0.4-0.6-0.4-1c0-0.8,0.5-1.3,1.6-1.3h1.3
	v-0.3c0-0.6-0.3-0.9-1-0.9c-0.5,0-0.8,0.1-1,0.4l-0.6-0.6c0.4-0.5,0.9-0.7,1.7-0.7c1.3,0,1.9,0.5,1.9,1.6v3.1L138.8,126.3
	L138.8,126.3z M138.8,124.2h-1.1c-0.6,0-0.8,0.2-0.8,0.7c0,0.4,0.3,0.7,0.9,0.7c0.4,0,0.6,0,0.9-0.3c0.1-0.1,0.2-0.3,0.2-0.7
	L138.8,124.2L138.8,124.2z M145.2,126.3v-0.4c-0.4,0.4-0.7,0.5-1.3,0.5c-0.7,0-1-0.1-1.3-0.4c-0.2-0.2-0.3-0.5-0.3-0.9
	c0-0.8,0.6-1.3,1.5-1.3h1.4v-0.5c0-0.7-0.4-1.1-1.2-1.1c-0.6,0-0.9,0.2-1.2,0.6l-0.3-0.3c0.4-0.5,0.8-0.7,1.6-0.7
	c1.2,0,1.7,0.5,1.7,1.5v3L145.2,126.3L145.2,126.3z M145.2,124.1h-1.4c-0.8,0-1.1,0.3-1.1,0.9s0.4,0.9,1.2,0.9c0.4,0,0.8,0,1.1-0.3
	c0.2-0.2,0.2-0.4,0.2-0.8V124.1L145.2,124.1z M149.9,126.3v-2.8c0-0.9-0.4-1.3-1.2-1.3s-1.2,0.5-1.2,1.3v2.8h-0.5v-4.4h0.5v0.5
	c0.3-0.4,0.8-0.6,1.3-0.6c0.5,0,0.9,0.2,1.2,0.4c0.3,0.3,0.5,0.7,0.5,1.2v2.8L149.9,126.3L149.9,126.3z M154.3,126.3v-0.6
	c-0.4,0.5-0.8,0.6-1.3,0.6c-0.5,0-0.9-0.2-1.1-0.4c-0.5-0.4-0.6-1.2-0.6-1.9s0.1-1.4,0.6-1.9c0.2-0.2,0.6-0.4,1.1-0.4
	c0.5,0,0.9,0.1,1.3,0.6v-2.7h0.5v6.6H154.3L154.3,126.3z M153.1,122.2c-1.1,0-1.2,0.9-1.2,1.9s0.1,1.9,1.2,1.9
	c1.1,0,1.2-0.9,1.2-1.9S154.1,122.2,153.1,122.2 M74.1,134.3c-1,0-1.7-0.2-2.3-0.9l0.7-0.7c0.5,0.5,1,0.6,1.7,0.6
	c0.9,0,1.4-0.4,1.4-1c0-0.3-0.1-0.5-0.3-0.7s-0.3-0.2-0.7-0.3l-0.8-0.1c-0.5-0.1-1-0.3-1.2-0.5c-0.3-0.3-0.5-0.7-0.5-1.2
	c0-1.1,0.8-1.9,2.2-1.9c0.8,0,1.5,0.2,2,0.7l-0.6,0.6c-0.4-0.4-0.9-0.5-1.4-0.5c-0.8,0-1.2,0.4-1.2,1c0,0.2,0.1,0.5,0.2,0.6
	c0.2,0.1,0.4,0.2,0.7,0.3l0.7,0.1c0.6,0.1,1,0.2,1.2,0.5c0.4,0.3,0.5,0.8,0.5,1.3C76.5,133.6,75.5,134.3,74.1,134.3"/>
<path class="st3" d="M80.1,134.3v-0.5c-0.3,0.4-0.8,0.5-1.2,0.5c-0.5,0-0.9-0.2-1.2-0.4c-0.4-0.4-0.5-0.8-0.5-1.3v-3h0.9v2.8
	c0,0.7,0.4,1,0.9,1c0.5,0,1-0.3,1-1v-2.8h1v4.7H80.1L80.1,134.3z M84.6,130.7c-0.2-0.2-0.4-0.3-0.7-0.3c-0.5,0-0.9,0.4-0.9,1v2.8H82
	v-4.7h0.9v0.5c0.2-0.3,0.7-0.6,1.2-0.6c0.5,0,0.8,0.1,1.1,0.4L84.6,130.7L84.6,130.7z M88,134.3v-0.4c-0.3,0.3-0.7,0.5-1.2,0.5
	s-1-0.1-1.2-0.4c-0.2-0.2-0.4-0.6-0.4-1c0-0.8,0.5-1.3,1.6-1.3h1.2v-0.3c0-0.6-0.3-0.9-1-0.9c-0.5,0-0.8,0.1-1,0.4l-0.6-0.6
	c0.4-0.5,0.9-0.7,1.7-0.7c1.3,0,1.9,0.5,1.9,1.6v3.1L88,134.3L88,134.3z M87.9,132.2h-1.1c-0.5,0-0.8,0.2-0.8,0.7
	c0,0.4,0.3,0.7,0.8,0.7c0.3,0,0.6,0,0.9-0.3c0.1-0.1,0.2-0.4,0.2-0.7L87.9,132.2L87.9,132.2z M91.1,134.3c-0.9,0-1.3-0.6-1.3-1.3
	v-2.6h-0.5v-0.7h0.6v-1.4h0.9v1.4h0.9v0.7h-0.9v2.5c0,0.3,0.2,0.5,0.5,0.5h0.4v0.8H91.1L91.1,134.3z M96.9,134.3h-2.7v-6.6h2.6
	c1.2,0,2,0.7,2,1.8c0,0.7-0.4,1.2-0.9,1.4c0.5,0.2,1,0.7,1,1.5C98.9,133.6,98.1,134.3,96.9,134.3 M96.7,128.6h-1.5v1.9h1.5
	c0.6,0,1.1-0.3,1.1-0.9C97.8,128.9,97.4,128.6,96.7,128.6 M96.8,131.4h-1.6v2h1.6c0.7,0,1.1-0.4,1.1-1S97.5,131.4,96.8,131.4"/>
<path class="st3" d="M102.3,134.3v-0.4c-0.3,0.3-0.7,0.5-1.2,0.5s-1-0.1-1.2-0.4c-0.2-0.2-0.4-0.6-0.4-1c0-0.8,0.6-1.3,1.6-1.3h1.2
	v-0.3c0-0.6-0.3-0.9-1-0.9c-0.5,0-0.8,0.1-1,0.4l-0.6-0.6c0.4-0.5,0.9-0.7,1.7-0.7c1.3,0,1.9,0.5,1.9,1.6v3.1L102.3,134.3
	L102.3,134.3z M102.3,132.2h-1.1c-0.5,0-0.8,0.2-0.8,0.7c0,0.4,0.3,0.7,0.9,0.7c0.4,0,0.6,0,0.9-0.3c0.1-0.1,0.2-0.4,0.2-0.7
	L102.3,132.2L102.3,132.2z M105.7,134.3c-0.8,0-1.4-0.1-2-0.7l0.6-0.6c0.4,0.4,0.9,0.5,1.4,0.5c0.6,0,1-0.2,1-0.7
	c0-0.3-0.2-0.5-0.6-0.5l-0.7-0.1c-0.9-0.1-1.4-0.5-1.4-1.3c0-0.9,0.8-1.4,1.8-1.4c0.7,0,1.3,0.2,1.7,0.5l-0.6,0.6
	c-0.3-0.2-0.7-0.3-1.2-0.3c-0.6,0-0.8,0.2-0.8,0.6c0,0.3,0.2,0.5,0.6,0.5l0.7,0.1c0.9,0.1,1.4,0.5,1.4,1.3
	C107.6,133.8,106.8,134.3,105.7,134.3"/>
<path class="st3" d="M108.3,127.7h1v1h-1V127.7z M108.3,129.6h0.9v4.7h-0.9C108.3,134.3,108.3,129.6,108.3,129.6z M113.1,134.3v-2.8
	c0-0.7-0.4-1-0.9-1s-1,0.3-1,1v2.8h-0.9v-4.7h0.9v0.5c0.3-0.3,0.8-0.5,1.2-0.5c0.5,0,0.9,0.2,1.2,0.4c0.4,0.4,0.5,0.8,0.5,1.3v3
	L113.1,134.3L113.1,134.3z M116.8,134.3v-6.6h4.2v0.9h-3.2v1.9h2.7v0.9h-2.7v2h3.2v0.9L116.8,134.3z M124.6,134.3v-2.8
	c0-0.7-0.4-1-0.9-1c-0.5,0-1,0.3-1,1v2.8h-0.9v-4.7h0.9v0.5c0.3-0.3,0.8-0.5,1.2-0.5s0.9,0.2,1.2,0.4c0.4,0.4,0.5,0.8,0.5,1.3v3
	L124.6,134.3L124.6,134.3z M127.9,134.3c-0.9,0-1.3-0.6-1.3-1.3v-2.6h-0.5v-0.7h0.5v-1.4h0.9v1.4h0.9v0.7h-0.9v2.5
	c0,0.3,0.2,0.5,0.5,0.5h0.4v0.8C128.5,134.3,127.9,134.3,127.9,134.3z M129.9,132.2c0,0.8,0.4,1.3,1.2,1.3c0.5,0,0.8-0.1,1.1-0.5
	l0.6,0.6c-0.5,0.5-0.9,0.7-1.8,0.7c-1.2,0-2.1-0.6-2.1-2.4c0-1.5,0.8-2.4,2-2.4c1.3,0,2,0.9,2,2.2v0.4L129.9,132.2L129.9,132.2z
	 M131.9,130.9c-0.2-0.3-0.5-0.6-0.9-0.6c-0.4,0-0.8,0.2-0.9,0.6c-0.1,0.2-0.1,0.3-0.1,0.6h2.1C132,131.2,132,131.1,131.9,130.9"/>
<path class="st3" d="M136.2,130.7c-0.2-0.2-0.4-0.3-0.7-0.3c-0.5,0-0.9,0.4-0.9,1v2.8h-0.9v-4.7h0.9v0.5c0.2-0.3,0.7-0.6,1.2-0.6
	c0.5,0,0.8,0.1,1.1,0.4L136.2,130.7L136.2,130.7z M140.5,133.9c-0.3,0.3-0.7,0.4-1.1,0.4c-0.5,0-0.9-0.1-1.2-0.5v2.4h-0.9v-6.6h0.9
	v0.5c0.3-0.4,0.7-0.6,1.2-0.6c0.5,0,0.9,0.2,1.1,0.4c0.5,0.5,0.5,1.3,0.5,2S141,133.4,140.5,133.9 M139.2,130.4c-0.8,0-1,0.7-1,1.5
	c0,0.8,0.1,1.6,1,1.6c0.8,0,1-0.7,1-1.6C140.1,131.1,140,130.4,139.2,130.4"/>
<path class="st3" d="M144.4,130.7c-0.2-0.2-0.4-0.3-0.7-0.3c-0.5,0-0.9,0.4-0.9,1v2.8h-0.9v-4.7h0.9v0.5c0.2-0.3,0.7-0.6,1.3-0.6
	c0.4,0,0.8,0.1,1.1,0.4L144.4,130.7L144.4,130.7z M145.4,127.7h1v1h-1V127.7z M145.4,129.6h0.9v4.7h-0.9L145.4,129.6L145.4,129.6z
	 M148.9,134.3c-0.8,0-1.4-0.1-2-0.7l0.6-0.6c0.4,0.4,0.9,0.5,1.3,0.5c0.6,0,1-0.2,1-0.7c0-0.3-0.2-0.5-0.6-0.5l-0.8-0.1
	c-0.9-0.1-1.4-0.5-1.4-1.3c0-0.9,0.8-1.4,1.8-1.4c0.7,0,1.3,0.2,1.7,0.5l-0.6,0.6c-0.3-0.2-0.7-0.3-1.1-0.3c-0.6,0-0.8,0.2-0.8,0.6
	c0,0.3,0.1,0.5,0.6,0.5l0.7,0.1c0.9,0.1,1.4,0.5,1.4,1.3C150.8,133.8,150,134.3,148.9,134.3 M152.2,132.2c0,0.8,0.4,1.3,1.2,1.3
	c0.5,0,0.8-0.1,1.1-0.5l0.6,0.6c-0.5,0.5-0.9,0.7-1.8,0.7c-1.2,0-2.1-0.6-2.1-2.4c0-1.5,0.8-2.4,2-2.4c1.2,0,2,0.9,2,2.2v0.4
	L152.2,132.2L152.2,132.2z M154.1,130.9c-0.1-0.3-0.5-0.6-0.9-0.6s-0.8,0.2-0.9,0.6c-0.1,0.2-0.1,0.3-0.1,0.6h2.1
	C154.3,131.2,154.2,131.1,154.1,130.9"/>
<path class="st1" d="M72.1,114.9h82.6v1.2H72.1V114.9z"/>
<path class="st4" d="M66.7,123.6c-8.1-0.2-15.9-3.2-22.1-8.5l-6.4,8.5c8,6.6,18.1,10.4,28.5,10.6L66.7,123.6L66.7,123.6z"/>
<path class="st5" d="M66.7,126.7c-3.4-0.1-6.8-0.6-10.3-1.7c-0.2-0.1-0.4-0.1-0.5-0.2l-1.1,4.3c0.1,0,0.2,0.1,0.3,0.1
	c3.8,1.2,7.7,1.8,11.6,1.8L66.7,126.7L66.7,126.7z"/>
<path class="st3" d="M67.4,80.8v28.4h-6.7V80.8h-9v-6h24.7v6H67.4z M88.4,109.5c-5.2,0-9.2-1.1-12.6-4.5l4.3-4.3
	c2.2,2.2,5.1,2.9,8.3,2.9c4,0,6.1-1.5,6.1-4.2c0-1.2-0.3-2.2-1.1-2.9c-0.7-0.6-1.4-1-3-1.2l-4.2-0.6c-3-0.4-5.1-1.4-6.7-2.8
	c-1.6-1.6-2.5-3.9-2.5-6.8c0-6.1,4.5-10.4,12-10.4c4.7,0,8.2,1.2,11.1,4L96,82.7c-2.2-2.1-4.8-2.4-7.1-2.4c-3.6,0-5.3,2-5.3,4.3
	c0,0.9,0.3,1.8,1,2.5c0.7,0.6,1.8,1.2,3.2,1.3l4,0.6c3.1,0.4,5.1,1.3,6.6,2.7c1.8,1.7,2.7,4.2,2.7,7.3
	C101.1,105.7,95.6,109.5,88.4,109.5 M118.5,109.2h-14.4V74.8h13.8c6.7,0,10.6,3.8,10.6,9.7c0,3.8-2.5,6.3-4.2,7.1
	c2.1,1,4.7,3.1,4.7,7.7C129,105.7,124.6,109.2,118.5,109.2 M117.4,80.8h-6.6v7.9h6.6c2.8,0,4.4-1.6,4.4-3.9
	C121.8,82.4,120.2,80.8,117.4,80.8 M117.8,94.8h-7v8.5h7c3,0,4.5-1.9,4.5-4.2C122.3,96.7,120.8,94.8,117.8,94.8"/>
<path class="st3" d="M132.1,109.2V74.8h22.6v6h-15.9v8h13.6v6h-13.6v8.4h15.9v6L132.1,109.2z"/>
<path class="st6" d="M41.9,116.6c-7.5-6.8-11.6-15.8-12.4-25.2H25c0.8,10.5,5.5,20.8,13.9,28.4c3.2,2.9,6.7,5.2,10.4,6.9l1.7-4.1
	C47.8,121.1,44.7,119.1,41.9,116.6"/>
<path class="st1" d="M98.3,54.1c-18.7-16.8-47.7-15.4-64.6,3.3C24,68.1,20.3,82.2,22.4,95.5l10.5-1.9c-1.5-10.1,1.3-20.8,8.7-29
	c13-14.4,35.3-15.4,49.7-2.4L98.3,54.1L98.3,54.1z"/>
<path class="st5" d="M96.3,56.5c-12.4-11.2-29.7-13.7-44.3-8l1.6,4.1c13.1-5.2,28.7-2.9,39.8,7.2L96.3,56.5L96.3,56.5z"/>
<path class="st7" d="M79.6,58.9c-16.2-6.6-34.8,1.2-41.4,17.4s1.2,34.8,17.4,41.5c3.7,1.5,7.4,2.2,11.1,2.3V115
	c-3.1-0.1-6.2-0.7-9.2-2c-13.6-5.6-20.1-21.2-14.6-34.8c5.6-13.6,21.2-20.2,34.8-14.6c3,1.2,5.7,3,7.9,5l3.4-3.8
	C86.3,62.4,83.2,60.4,79.6,58.9"/>
</svg>
