<?xml version="1.0" encoding="utf-8"?>
<!-- Generator: Adobe Illustrator 26.2.1, SVG Export Plug-In . SVG Version: 6.00 Build 0)  -->
<svg version="1.1" id="Layer_1" xmlns="http://www.w3.org/2000/svg" xmlns:xlink="http://www.w3.org/1999/xlink" x="0px" y="0px"
	 viewBox="0 0 357.2 116.4" style="enable-background:new 0 0 357.2 116.4;" xml:space="preserve">
<style type="text/css">
	.st0{fill:#92278F;}
	.st1{fill:#F15D22;}
	.st2{fill:#D9531E;}
	.st3{fill:#F8971D;}
	.st4{fill:#E37F1C;}
	.st5{fill:#B5121B;}
	.st6{fill:#8A2529;}
	.st7{fill:#FFE512;}
	.st8{display:none;}
	.st9{display:inline;fill:#F15D22;}
	.st10{display:inline;}
	.st11{fill:#F15E24;stroke:#F15E24;stroke-width:0.8;stroke-miterlimit:10;}
</style>
<polygon class="st0" points="0,54.9 21.5,92.1 29.7,92.1 46.1,63.7 20.5,19.5 "/>
<polygon class="st1" points="49.1,58.5 46.1,63.7 59.1,86.3 62.1,81.1 "/>
<polygon class="st2" points="62.1,81.1 59.1,86.3 61.7,90.7 64.7,85.5 "/>
<path class="st3" d="M67.6,18.3L46.7,54.3l2.4,4.2l12.5-21.6l13,22.5L83,45L67.6,18.3z M109,90l-1.2,2.1h2.4L109,90z"/>
<polygon class="st4" points="83,45 74.7,59.4 77.2,63.8 64.7,85.5 68.5,92.1 107.8,92.1 109,90 "/>
<polygon class="st5" points="61.6,36.8 49.1,58.5 62.1,81.1 74.7,59.4 "/>
<g>
	<polygon class="st6" points="61.7,90.7 60.9,92.1 62.5,92.1 	"/>
	<polygon class="st6" points="46.1,63.7 29.7,92.1 55.8,92.1 59.1,86.3 	"/>
	<polygon class="st6" points="59.1,86.3 55.8,92.1 60.9,92.1 61.7,90.7 	"/>
	<polygon class="st6" points="74.7,59.4 62.1,81.1 64.7,85.5 77.2,63.8 	"/>
</g>
<g>
	<path class="st7" d="M108.9,0L83,45l26,45l26-45L108.9,0z"/>
	<polygon class="st7" points="64.7,85.5 61.7,90.7 62.5,92.1 68.5,92.1 	"/>
</g>
<g>
	<g>
		<path d="M121.2,65.3c0.3,0,0.5,0.2,0.6,0.5l1.6,9c0.1,0.6,0.2,1,0.2,1.3c0.1,0.3,0.1,0.6,0.2,0.9c0.1,0.3,0.1,0.7,0.2,1.1
			c0.1,0.4,0.2,1,0.3,1.8c0.1-0.5,0.2-1.1,0.3-1.6c0.1-0.6,0.2-1,0.3-1.5c0.1-0.7,0.3-1.4,0.5-2.1c0.4-1.5,0.7-3,1-4.5
			c0.3-1.5,0.7-3,1-4.5c0.1-0.3,0.3-0.5,0.6-0.5h7.6c0.4,0,0.6,0.2,0.6,0.5l2,8.6c0.1,0.3,0.1,0.6,0.2,0.8c0.1,0.3,0.1,0.5,0.2,0.8
			c0.1,0.5,0.2,0.9,0.2,1.1c0.1,0.2,0.1,0.4,0.1,0.6c0,0.2,0.1,0.4,0.1,0.7c0.1,0.3,0.2,0.7,0.3,1.4c0.1-1,0.3-1.9,0.5-2.8
			c0.2-0.9,0.3-1.8,0.5-2.7c0.3-1.3,0.6-2.8,0.9-4.2c0.3-1.5,0.5-2.9,0.8-4.2c0.1-0.4,0.3-0.5,0.6-0.5h9.4c0.2,0,0.4,0.1,0.5,0.3
			c0.1,0.2,0.1,0.4,0,0.6L145,91.4c-0.1,0.3-0.3,0.4-0.6,0.4H135c-0.4,0-0.6-0.2-0.6-0.5l-1.8-7.6c-0.3-1.3-0.6-2.6-0.9-3.9
			c-0.1,0.7-0.3,1.4-0.4,2c-0.1,0.6-0.2,1.2-0.4,1.8l-1.9,7.7c-0.1,0.3-0.3,0.5-0.6,0.5H119c-0.3,0-0.5-0.2-0.5-0.5l-7.7-25.3
			c0-0.2,0-0.4,0.1-0.6c0.1-0.2,0.3-0.2,0.5-0.2H121.2z"/>
		<path d="M171,74.7c0-0.2-0.1-0.5-0.3-0.8c-0.2-0.3-0.3-0.6-0.6-0.9c-0.7-0.7-1.6-1.1-2.5-1.1c-1.2,0-2.1,0.3-2.6,0.9
			c-0.6,0.6-0.9,1.2-1.1,1.9C163.9,74.7,171,74.7,171,74.7z M164.4,82.4c0.5,0.5,1.3,0.9,2.4,1.2c1.1,0.3,2.3,0.5,3.5,0.5
			c1.1,0,2.2-0.1,3.4-0.2c0.2,0,0.3,0,0.5,0.1c0.1,0.1,0.2,0.2,0.2,0.4l1.2,6.7c0,0.2,0,0.3-0.1,0.5c-0.1,0.1-0.2,0.2-0.4,0.3
			c-1,0.2-2,0.4-3,0.4c-1,0.1-2,0.1-3,0.1c-2.5,0-4.7-0.3-6.6-1c-1.9-0.6-3.5-1.6-4.8-2.8c-1.3-1.2-2.3-2.7-3-4.4
			c-0.7-1.7-1-3.6-1-5.7c0-1.3,0.2-2.7,0.7-4.4c0.5-1.6,1.3-3.2,2.4-4.6c1.1-1.4,2.6-2.6,4.5-3.6c1.8-1,4.1-1.5,6.9-1.5
			c2.4,0,4.4,0.4,6,1.2c1.6,0.8,3,1.9,4,3.2c1,1.3,1.8,2.8,2.3,4.4c0.5,1.6,0.7,3.3,0.7,5c0,0.7,0,1.4-0.1,2.1
			c-0.1,0.7-0.2,1.1-0.2,1.4c-0.1,0.3-0.3,0.5-0.6,0.5H164.4z"/>
		<path d="M200.8,91.7c-0.1,0.4-0.3,0.6-0.6,0.6c-2.5,0-4.7-0.3-6.8-0.9c-2-0.6-3.7-1.5-5.1-2.8c-1.3-1.2-2.3-2.8-3-4.7
			c-0.7-2-1-4.4-1-7.5v-22c0-0.4,0.2-0.6,0.6-0.6h9.7c0.4,0,0.6,0.2,0.6,0.6v19.8c0,2.4,0.1,4.2,0.3,5.3c0.2,1.2,0.6,2,1.1,2.5
			c0.8,0.9,2.3,1.3,4.5,1.5c0.4,0.1,0.6,0.3,0.5,0.7L200.8,91.7z"/>
		<path d="M219.6,91.7c-0.1,0.4-0.3,0.6-0.6,0.6c-2.5,0-4.7-0.3-6.8-0.9c-2-0.6-3.7-1.5-5.1-2.8c-1.3-1.2-2.3-2.8-3-4.7
			c-0.7-2-1-4.4-1-7.5v-22c0-0.4,0.2-0.6,0.6-0.6h9.7c0.4,0,0.6,0.2,0.6,0.6v19.8c0,2.4,0.1,4.2,0.3,5.3c0.2,1.2,0.6,2,1.1,2.5
			c0.8,0.9,2.3,1.3,4.5,1.5c0.4,0.1,0.6,0.3,0.5,0.7L219.6,91.7z"/>
		<path d="M245,90.5c0.1,0.3,0,0.5-0.3,0.6c-1,0.5-2.1,0.8-3.6,1c-1.4,0.2-2.9,0.3-4.5,0.3c-2.3,0-4.4-0.3-6.3-1
			c-1.9-0.6-3.5-1.6-4.8-2.8c-1.3-1.2-2.3-2.7-3-4.3c-0.7-1.7-1.1-3.6-1.1-5.7c0-1.8,0.3-3.6,1-5.2c0.7-1.7,1.6-3.2,3-4.5
			c1.3-1.3,3-2.4,5.1-3.1c2-0.8,4.5-1.2,7.3-1.2c1,0,2,0.1,3.2,0.2c1.2,0.1,2.4,0.4,3.5,0.8c0.3,0.1,0.4,0.3,0.4,0.6l-1.5,7.1
			c-0.1,0.5-0.4,0.7-0.9,0.5c-0.5-0.2-1-0.3-1.7-0.5c-0.7-0.1-1.5-0.2-2.6-0.2c-1.7,0-3,0.5-4.1,1.4c-1,1-1.6,2.2-1.6,3.8
			c0,0.9,0.2,1.7,0.5,2.4c0.3,0.7,0.8,1.2,1.4,1.7c0.6,0.4,1.2,0.7,1.9,1c0.7,0.2,1.5,0.3,2.2,0.3c0.9,0,1.6-0.1,2.3-0.2
			c0.7-0.1,1.4-0.3,2.1-0.5c0.2-0.1,0.3-0.1,0.5,0c0.2,0.1,0.3,0.2,0.3,0.4L245,90.5z"/>
		<path d="M262.9,80.2c-3.8,0.1-5.7,1.1-5.7,2.9c0,1.2,0.8,1.9,2.4,1.9c0.7,0,1.4-0.2,2-0.7c0.6-0.5,1-1.1,1.2-1.7
			c0.1-0.2,0.1-0.5,0.1-0.7v-0.7V80.2z M273.5,84.9c0,1.3,0,2.5,0.1,3.6c0,1.1,0.1,1.9,0.3,2.5c0,0.2,0,0.3-0.1,0.5
			c-0.1,0.2-0.2,0.3-0.4,0.3l-8.8,1c-0.1,0-0.3,0-0.4-0.1c-0.1-0.1-0.2-0.2-0.2-0.4l-0.4-2.2c-1,0.8-2.1,1.4-3.3,1.8
			c-1.2,0.4-2.5,0.5-3.9,0.5c-1.5,0-2.8-0.2-4-0.7c-1.2-0.5-2.2-1.1-3-1.9c-0.8-0.8-1.4-1.7-1.8-2.8c-0.4-1-0.6-2.1-0.6-3.2
			c0-1.7,0.4-3.3,1.1-4.6c0.7-1.3,1.8-2.4,3.1-3.3c1.3-0.9,2.9-1.5,4.8-2c1.9-0.5,4-0.8,6.4-0.8c-1.3-1.3-4.1-1.4-7.1-0.7
			c-0.2,0.1-0.3,0.1-0.5-0.1c-0.1-0.1-0.2-0.2-0.3-0.4l-1-6c0-0.2,0-0.3,0.1-0.5c0.1-0.1,0.2-0.2,0.4-0.3c1.8-0.4,4-0.6,6.4-0.6
			c2.3,0,4.2,0.3,5.9,0.8c1.7,0.6,3,1.3,4.1,2.4c1.1,1,1.8,2.3,2.3,3.7c0.5,1.5,0.7,3.1,0.7,4.8V84.9z"/>
		<path d="M278.7,74.7c0-1.8,0-3.4-0.1-4.9c0-1.4-0.1-2.7-0.2-3.9c0-0.5,0.2-0.7,0.6-0.7h8.1c0.3,0,0.5,0.2,0.6,0.6l0.2,1.9
			c0.3-0.3,0.6-0.7,1.1-1c0.4-0.4,1-0.7,1.6-1c0.6-0.3,1.4-0.5,2.2-0.7c0.8-0.2,1.7-0.3,2.8-0.3c1.7,0,3.1,0.3,4.4,0.9
			c1.3,0.6,2.3,1.6,3.1,2.8c0.5-0.6,1.1-1.1,1.6-1.5c0.5-0.5,1.1-0.8,1.7-1.1c1.4-0.7,3.1-1.1,5.1-1.1c3,0,5.4,1,7.2,3
			c1.8,2,2.7,5,2.7,8.9v9.5c0,0.6,0.1,1.3,0.4,2c0.3,0.8,0.5,1.4,0.7,1.9c0.2,0.5,0.3,0.8,0.4,0.9c0.1,0.2,0.1,0.4,0,0.5
			c-0.1,0.2-0.3,0.3-0.5,0.3l-9.4,1c-0.2,0-0.4-0.1-0.6-0.3c-0.3-0.7-0.6-1.4-0.8-1.9c-0.2-0.6-0.4-1.3-0.6-2.1
			c-0.2-0.8-0.2-1.6-0.2-2.4V78c0-2.9-0.9-4.4-2.8-4.4c-0.7,0-1.2,0.2-1.6,0.6c-0.4,0.4-0.7,0.8-0.9,1.4c-0.1,0.2-0.1,0.5-0.2,0.9
			c0,0.3-0.1,0.6-0.1,0.8v13.9c0,0.4-0.2,0.6-0.6,0.6h-9.4c-0.4,0-0.6-0.2-0.6-0.6V78c0-2.9-0.9-4.4-2.7-4.4c-0.8,0-1.4,0.2-1.8,0.7
			c-0.4,0.5-0.6,0.9-0.8,1.2c-0.1,0.2-0.2,0.5-0.2,0.8c0,0.3,0,0.6,0,0.9v14c0,0.4-0.2,0.6-0.6,0.6h-9.4c-0.4,0-0.6-0.2-0.6-0.6
			V74.7z"/>
		<path d="M337.8,79.5v0.6c0,0.2,0,0.4,0.1,0.6c0.1,0.8,0.5,1.5,1.2,2.2c0.7,0.6,1.5,1,2.5,1c1.3,0,2.4-0.5,3.2-1.4
			c0.8-0.9,1.2-2.2,1.2-3.9c0-1.5-0.3-2.8-1-3.8c-0.7-1-1.8-1.6-3.3-1.6c-1,0-1.8,0.3-2.5,1c-0.7,0.7-1.1,1.5-1.2,2.5
			c0,0.2-0.1,0.3-0.1,0.5v0.4V79.5z M326.9,74.7c0-1.7,0-3,0-4.1c0-1.1-0.1-2.1-0.1-3.1c0-0.1,0-0.2,0-0.3c0-0.1,0-0.2,0-0.3
			c0-0.4,0.2-0.6,0.5-0.6l8.4-2c0.2-0.1,0.3,0,0.5,0.1c0.2,0.1,0.3,0.3,0.3,0.4l0.3,3c1.1-1,2.5-1.8,3.9-2.3
			c1.5-0.5,3.1-0.8,4.8-0.8c1.3,0,2.7,0.3,4.1,0.8c1.4,0.5,2.7,1.4,3.8,2.5c1.1,1.1,2.1,2.5,2.8,4.2c0.7,1.7,1.1,3.7,1.1,6
			c0,2.4-0.4,4.6-1.2,6.4c-0.8,1.8-1.8,3.3-3.1,4.5c-1.2,1.2-2.7,2.1-4.2,2.6c-1.6,0.6-3.1,0.9-4.7,0.9c-1.3,0-2.5-0.2-3.6-0.5
			c-1-0.3-1.9-0.7-2.6-1.2v10.7c0,0.4-0.2,0.6-0.6,0.6h-9.7c-0.4,0-0.6-0.2-0.6-0.6V74.7z"/>
	</g>
</g>
<g class="st8">
	<path class="st9" d="M124.8,110.1l-1.5-5.2l-1.6,5.2H124.8z M131.8,116h-5.3l-0.7-2.4h-5.2l-0.7,2.4h-5.1l6.1-16.5h5L131.8,116z"/>
	<rect x="132.4" y="99.5" class="st9" width="5.1" height="16.5"/>
	<g class="st10">
		<path class="st1" d="M144.7,106.7h2.7c1.5,0,2.2-0.6,2.2-1.7c0-1.1-0.8-1.6-2.5-1.6h-2.4V106.7z M144.7,110.2v5.8h-5.1V99.5h9.5
			c1.7,0,3,0.4,4,1.3c1,0.9,1.5,2,1.5,3.5c0,1-0.2,1.8-0.7,2.6c-0.5,0.7-1.1,1.2-1.8,1.5c0.8,0.3,1.4,0.9,1.8,1.8
			c0.4,0.9,0.6,2,0.6,3.2c0,1,0.2,1.9,0.5,2.6h-5.1c-0.2-0.6-0.3-1-0.4-1.4c-0.1-0.4-0.1-0.9-0.1-1.6c-0.1-1-0.3-1.6-0.6-2.1
			c-0.3-0.4-0.9-0.6-1.6-0.6H144.7z"/>
		<path class="st1" d="M161.3,107h2.2c0.9,0,1.5-0.1,1.9-0.4c0.4-0.3,0.6-0.7,0.6-1.3c0-0.6-0.2-1-0.5-1.3c-0.4-0.2-1-0.3-1.8-0.3
			h-2.4V107z M161.3,111v5h-5.1V99.5h8.6c1.7,0,3.2,0.5,4.3,1.6c1.1,1,1.7,2.4,1.7,4c0,1.9-0.6,3.4-1.7,4.4c-1.1,1-2.7,1.5-4.8,1.5
			H161.3z"/>
		<path class="st1" d="M183,107.8c0-1.4-0.3-2.6-0.8-3.4c-0.6-0.8-1.4-1.2-2.4-1.2c-1.1,0-1.9,0.4-2.4,1.2c-0.6,0.8-0.8,1.9-0.8,3.4
			c0,1.4,0.3,2.5,0.8,3.3c0.6,0.8,1.4,1.2,2.4,1.2c1.1,0,1.9-0.4,2.4-1.2C182.8,110.3,183,109.2,183,107.8 M188.1,107.8
			c0,2.6-0.8,4.7-2.3,6.3c-1.5,1.6-3.6,2.4-6.1,2.4c-2.5,0-4.5-0.8-6.1-2.4c-1.5-1.6-2.3-3.7-2.3-6.3c0-2.6,0.8-4.7,2.3-6.3
			c1.5-1.6,3.6-2.4,6.1-2.4c2.5,0,4.5,0.8,6.1,2.4C187.4,103.1,188.1,105.2,188.1,107.8"/>
		<path class="st1" d="M194.9,106.7h2.7c1.5,0,2.2-0.6,2.2-1.7c0-1.1-0.8-1.6-2.5-1.6h-2.4V106.7z M194.9,110.2v5.8h-5.1V99.5h9.5
			c1.7,0,3,0.4,4,1.3c1,0.9,1.5,2,1.5,3.5c0,1-0.2,1.8-0.7,2.6c-0.5,0.7-1.1,1.2-1.8,1.5c0.8,0.3,1.4,0.9,1.8,1.8
			c0.4,0.9,0.6,2,0.6,3.2c0,1,0.2,1.9,0.5,2.6h-5.1c-0.2-0.6-0.3-1-0.4-1.4c-0.1-0.4-0.1-0.9-0.1-1.6c-0.1-1-0.3-1.6-0.6-2.1
			c-0.3-0.4-0.9-0.6-1.6-0.6H194.9z"/>
	</g>
	<polygon class="st9" points="215.3,116 210.2,116 210.2,103.7 205.6,103.7 205.6,99.5 220,99.5 220,103.7 215.3,103.7 	"/>
</g>
<g class="st8">
	<path class="st10" d="M226.5,51H223v-3.2h11V51h-3.5v9.4h-3.9V51z"/>
	<path class="st10" d="M241.4,47.5c3.8,0,6.4,2.8,6.4,6.6c0,3.9-2.6,6.6-6.4,6.6c-3.8,0-6.4-2.8-6.4-6.6
		C235,50.2,237.6,47.5,241.4,47.5z M241.4,57.6c1,0,2.5-0.7,2.5-3.5c0-2.8-1.5-3.5-2.5-3.5c-1,0-2.5,0.7-2.5,3.5
		C238.9,56.9,240.4,57.6,241.4,57.6z"/>
	<path class="st10" d="M255.5,47.5c3.8,0,6.4,2.8,6.4,6.6c0,3.9-2.6,6.6-6.4,6.6c-3.8,0-6.4-2.8-6.4-6.6
		C249.1,50.2,251.7,47.5,255.5,47.5z M255.5,57.6c1,0,2.5-0.7,2.5-3.5c0-2.8-1.5-3.5-2.5-3.5s-2.5,0.7-2.5,3.5
		C253,56.9,254.5,57.6,255.5,57.6z"/>
	<path class="st10" d="M276.2,60.4h-3.8l-1.4-7.7h0l-1.3,7.7h-3.8l-3.4-12.7h3.8l1.5,7.8h0l1.5-7.8h3.4l1.5,7.9h0l1.6-7.9h3.8
		L276.2,60.4z"/>
	<path class="st10" d="M286.7,47.5c3.8,0,6.4,2.8,6.4,6.6c0,3.9-2.6,6.6-6.4,6.6c-3.8,0-6.4-2.8-6.4-6.6
		C280.3,50.2,282.9,47.5,286.7,47.5z M286.7,57.6c1,0,2.5-0.7,2.5-3.5c0-2.8-1.5-3.5-2.5-3.5s-2.5,0.7-2.5,3.5
		C284.2,56.9,285.7,57.6,286.7,57.6z"/>
	<path class="st10" d="M300.8,47.5c3.8,0,6.4,2.8,6.4,6.6c0,3.9-2.6,6.6-6.4,6.6c-3.8,0-6.4-2.8-6.4-6.6
		C294.4,50.2,297,47.5,300.8,47.5z M300.8,57.6c1,0,2.5-0.7,2.5-3.5c0-2.8-1.5-3.5-2.5-3.5c-1,0-2.5,0.7-2.5,3.5
		C298.3,56.9,299.8,57.6,300.8,57.6z"/>
	<path class="st10" d="M308.9,47.8h5.5l1.8,7.4h0l1.8-7.4h5.5v12.7h-3.7v-8.1h0l-2.2,8.1h-2.9l-2.2-8.1h0v8.1h-3.7V47.8z"/>
	<path class="st10" d="M325.6,47.8h6.9c3.3,0,4,1.9,4,3.2c0,1.3-0.6,2-1.6,2.5c1.1,0.4,2.2,1.3,2.2,3.2c0,2.5-2.2,3.8-4.4,3.8h-7.2
		V47.8z M329.5,52.7h2.1c0.8,0,1.3-0.2,1.3-1c0-0.6-0.5-0.9-1.3-0.9h-2.1V52.7z M329.5,58.4h2.3c0.8,0,1.5-0.2,1.5-1.2
		c0-0.7-0.4-1.2-1.4-1.2h-2.4V58.4z"/>
	<path class="st10" d="M342.2,47.8h3.8l4.6,12.7h-4l-0.5-1.8h-4l-0.6,1.8h-3.9L342.2,47.8z M345.3,55.9l-1.1-3.9h0l-1.2,3.9H345.3z"
		/>
</g>
<g>
</g>
<g>
	<path class="st11" d="M68.8,105h-5v2.4h5.6v2.8H60V97.4h9.1v2.8h-5.3v2.1h5V105z"/>
	<path class="st11" d="M71.5,110.2V97.4h4.4l2.2,3.9c0.8,1.3,1.6,3,2.2,4.5h0.1c-0.2-1.7-0.3-3.5-0.3-5.4v-3h3.4v12.8h-3.9l-2.4-4.3
		c-0.8-1.4-1.7-3.1-2.4-4.6h-0.1c0.1,1.7,0.1,3.7,0.1,5.7v3.2H71.5z"/>
	<path class="st11" d="M88.8,100.3h-3.6v-2.9h10.9v2.9h-3.6v9.9h-3.8V100.3z"/>
	<path class="st11" d="M106.6,105h-5v2.4h5.6v2.8h-9.4V97.4h9.1v2.8h-5.3v2.1h5V105z"/>
	<path class="st11" d="M109.3,97.6c1.1-0.2,2.7-0.3,4.5-0.3c2.1,0,3.7,0.3,4.7,1c0.9,0.6,1.4,1.5,1.4,2.8c0,1.6-1.3,2.7-2.4,3.1v0.1
		c0.9,0.4,1.4,1.2,1.8,2.3c0.4,1.3,0.9,3.2,1.2,3.7h-3.8c-0.2-0.4-0.6-1.4-1-2.9c-0.4-1.5-0.9-1.9-2.1-1.9H113v4.8h-3.7V97.6z
		 M113,102.9h1c1.4,0,2.2-0.6,2.2-1.6c0-1-0.7-1.5-1.9-1.5c-0.7,0-1.1,0-1.3,0.1V102.9z"/>
	<path class="st11" d="M124.8,100.3h-3.6v-2.9h10.9v2.9h-3.6v9.9h-3.8V100.3z"/>
	<path class="st11" d="M136.1,107.2l-0.8,3h-3.9l4.1-12.8h5l4.2,12.8h-4l-0.9-3H136.1z M139.2,104.7l-0.6-2.3
		c-0.2-0.7-0.5-1.8-0.7-2.5h0c-0.2,0.8-0.4,1.8-0.6,2.5l-0.6,2.3H139.2z"/>
	<path class="st11" d="M150.2,97.4v12.8h-3.8V97.4H150.2z"/>
	<path class="st11" d="M152.7,110.2V97.4h4.4l2.2,3.9c0.8,1.3,1.6,3,2.2,4.5h0.1c-0.2-1.7-0.3-3.5-0.3-5.4v-3h3.4v12.8h-3.9
		l-2.4-4.3c-0.8-1.4-1.7-3.1-2.4-4.6H156c0.1,1.7,0.1,3.7,0.1,5.7v3.2H152.7z"/>
	<path class="st11" d="M179.1,105.6c0-1.5-0.1-3.2-0.1-5.2H179c-0.4,1.7-1,3.6-1.5,5l-1.4,4.5h-2.9l-1.2-4.4c-0.4-1.4-0.8-3.3-1.1-5
		h0c-0.1,1.8-0.2,3.7-0.2,5.2l-0.2,4.6H167l0.8-12.8h5l0.9,3.4c0.4,1.4,0.8,3.1,1.1,4.7h0.1c0.4-1.6,0.8-3.4,1.3-4.7l1-3.4h4.9
		l0.7,12.8h-3.6L179.1,105.6z"/>
	<path class="st11" d="M194,105h-5v2.4h5.6v2.8h-9.4V97.4h9.1v2.8H189v2.1h5V105z"/>
	<path class="st11" d="M196.7,110.2V97.4h4.4l2.2,3.9c0.8,1.3,1.6,3,2.2,4.5h0.1c-0.2-1.7-0.3-3.5-0.3-5.4v-3h3.4v12.8h-3.9
		l-2.4-4.3c-0.8-1.4-1.7-3.1-2.4-4.6H200c0.1,1.7,0.1,3.7,0.1,5.7v3.2H196.7z"/>
	<path class="st11" d="M214,100.3h-3.6v-2.9h10.9v2.9h-3.6v9.9H214V100.3z"/>
	<path class="st11" d="M227.2,97.6c1-0.2,2.5-0.3,4.6-0.3c2,0,3.4,0.3,4.4,1c1,0.6,1.6,1.8,1.6,3.1c0,1.3-0.5,2.4-1.3,3.2
		c-1.1,0.9-2.8,1.3-4.7,1.3c-0.4,0-0.7,0-0.9,0v4.4h-3.7V97.6z M230.9,103.2c0.2,0,0.5,0,0.8,0c1.5,0,2.4-0.7,2.4-1.8
		c0-1-0.7-1.6-2.1-1.6c-0.6,0-0.9,0-1.1,0.1V103.2z"/>
	<path class="st11" d="M239.7,97.6c1.1-0.2,2.7-0.3,4.5-0.3c2.1,0,3.7,0.3,4.7,1c0.9,0.6,1.4,1.5,1.4,2.8c0,1.6-1.3,2.7-2.4,3.1v0.1
		c0.9,0.4,1.4,1.2,1.8,2.3c0.4,1.3,0.9,3.2,1.2,3.7H247c-0.2-0.4-0.6-1.4-1-2.9c-0.4-1.5-0.9-1.9-2.1-1.9h-0.6v4.8h-3.7V97.6z
		 M243.4,102.9h1c1.4,0,2.2-0.6,2.2-1.6c0-1-0.7-1.5-1.9-1.5c-0.7,0-1.1,0-1.3,0.1V102.9z"/>
	<path class="st11" d="M261.3,105h-5v2.4h5.6v2.8h-9.4V97.4h9.1v2.8h-5.3v2.1h5V105z"/>
	<path class="st11" d="M274.4,109.9c-0.5,0.2-1.8,0.5-3.5,0.5c-5.2,0-7.5-3-7.5-6.4c0-4.5,3.6-6.8,7.8-6.8c1.6,0,2.9,0.3,3.5,0.6
		l-0.7,2.7c-0.6-0.2-1.5-0.5-2.6-0.5c-2.2,0-4,1.2-4,3.8c0,2.3,1.5,3.8,4.1,3.8c0.9,0,1.9-0.2,2.5-0.4L274.4,109.9z"/>
	<path class="st11" d="M280.2,97.4v12.8h-3.8V97.4H280.2z"/>
	<path class="st11" d="M282.7,110.2V97.4h4.4l2.2,3.9c0.8,1.3,1.6,3,2.2,4.5h0.1c-0.2-1.7-0.3-3.5-0.3-5.4v-3h3.4v12.8h-3.9
		l-2.4-4.3c-0.8-1.4-1.7-3.1-2.4-4.6H286c0.1,1.7,0.1,3.7,0.1,5.7v3.2H282.7z"/>
	<path class="st11" d="M307.8,109.9c-0.5,0.2-1.8,0.5-3.5,0.5c-5.2,0-7.5-3-7.5-6.4c0-4.5,3.6-6.8,7.8-6.8c1.6,0,2.9,0.3,3.5,0.6
		l-0.7,2.7c-0.6-0.2-1.5-0.5-2.6-0.5c-2.2,0-4,1.2-4,3.8c0,2.3,1.5,3.8,4.1,3.8c0.9,0,1.9-0.2,2.5-0.4L307.8,109.9z"/>
	<path class="st11" d="M312.7,100.3h-3.6v-2.9h10.9v2.9h-3.6v9.9h-3.8V100.3z"/>
</g>
<g>
</g>
<g>
</g>
<g>
</g>
<g>
</g>
<g>
</g>
<g>
</g>
</svg>
